<svg width="844" height="300" viewBox="0 0 844 300" fill="none" xmlns="http://www.w3.org/2000/svg">
<path d="M113.478 89.3485L112.826 110.218C108.913 103.044 102.391 97.1745 94.5652 93.2615C86.7391 88.6963 77.6087 86.7397 68.4782 86.7397C48.913 86.7397 32.6087 92.6093 19.5652 105.001C6.52174 117.392 0 133.696 0 155.218C0 176.74 6.5218 194.348 18.9131 206.087C31.3044 218.479 47.6087 224.348 67.1739 224.348C76.3043 224.348 84.7826 222.392 93.2608 217.827C101.739 213.914 108.261 207.392 112.174 199.566L113.478 221.088H139.565V89.3485H113.478ZM111.522 164.348C110.217 170.218 107.609 176.088 104.348 181.305C101.087 186.522 96.5217 190.435 90.6522 193.696C84.7826 196.957 77.6087 198.261 69.7827 198.261C58.0435 198.261 47.6087 194.348 39.7826 186.522C31.3044 178.696 27.3914 168.261 27.3914 154.566C27.3914 141.522 31.3044 131.088 39.7826 123.261C47.6087 115.435 58.0435 111.522 69.7827 111.522C77.6087 111.522 84.7826 112.827 90.6522 116.088C96.5217 119.348 101.087 123.261 104.348 128.479C107.609 133.696 109.565 139.566 111.522 145.435C112.826 151.957 112.826 157.827 111.522 164.348Z" fill="black"/>
<path d="M275.214 202.174C286.953 197.609 295.431 191.087 301.301 181.957C307.17 172.826 309.779 162.391 309.779 150.652C309.779 135.652 304.562 122.609 294.127 110.217L309.779 91.9566L289.562 76.3044L275.214 93.9131C266.083 88.0435 254.344 84.7827 239.996 84.7827C220.431 84.7827 204.127 90.6523 189.779 102.391C175.431 114.131 168.909 130.435 168.909 151.304C168.909 171.522 175.431 187.826 188.475 199.565C201.518 211.304 218.475 217.174 239.996 217.174C252.388 217.174 262.17 219.783 269.996 224.348C277.822 229.565 281.083 236.087 281.083 245.217C281.083 253.696 277.17 260.87 268.692 265.435C260.214 270 250.431 272.609 239.344 272.609C227.605 272.609 217.822 269.348 209.344 264.13C200.866 258.261 196.953 251.087 197.605 241.304H170.214C169.562 259.565 175.431 273.913 188.475 284.348C200.866 294.783 217.822 300 239.996 300C258.909 300 275.214 295.435 289.562 285.652C303.257 276.522 310.431 262.826 310.431 246.522C309.779 224.348 298.692 210 275.214 202.174ZM270.648 180C262.822 187.826 252.388 191.087 239.996 191.087C227.605 191.087 217.17 187.826 208.692 180.652C200.214 173.478 196.301 163.696 196.301 151.304C196.301 138.261 200.214 128.478 208.692 121.304C217.17 114.13 227.605 110.87 239.344 110.87C251.083 110.87 261.518 114.783 269.344 121.957C277.822 129.13 281.735 138.913 281.735 151.304C283.04 163.044 279.127 172.826 270.648 180Z" fill="black"/>
<path d="M406.955 86.0874C388.694 86.0874 375.651 92.6091 368.477 106.305L366.52 88.6961H341.085V219.783H368.477V149.348C368.477 137.609 371.738 129.131 378.259 122.609C384.781 116.087 393.259 113.479 403.694 113.479C412.825 113.479 419.998 116.087 426.52 121.305L438.911 97.1743C431.085 90.0004 419.998 86.0874 406.955 86.0874Z" fill="black"/>
<path d="M479.995 35.8701C474.125 33.2614 468.255 33.2614 463.038 35.8701C457.168 38.4788 454.56 43.6962 454.56 50.8701C454.56 58.044 457.168 63.2614 463.038 65.8701C468.908 69.1309 474.125 69.1309 479.995 65.8701C485.864 62.6092 488.473 58.044 488.473 50.8701C488.473 43.6962 485.864 38.4788 479.995 35.8701ZM457.821 88.6961V220.435H485.212V88.6961H457.821Z" fill="black"/>
<path d="M523.694 34.5654V220.435H551.086V34.5654H523.694Z" fill="#88D33F"/>
<path d="M589.561 88.6956V220.435H616.952V88.6956H589.561Z" fill="#88D33F"/>
<path d="M701.081 61.9565C704.994 57.3913 710.212 55.4348 716.734 55.4348C722.603 55.4348 729.125 57.3913 735.647 61.9565V35.8696C729.125 33.2609 721.951 31.9565 715.429 31.9565C701.081 31.9565 689.994 36.5218 681.516 45C673.038 53.4783 668.473 65.8696 668.473 81.5217V90.6522H643.69V114.783H668.473V220.435H695.864V115.435H735.647V90.6522H695.864V80.8696C695.864 73.0435 697.168 66.5217 701.081 61.9565Z" fill="#88D33F"/>
<path d="M835.434 193.044C829.565 196.304 823.695 197.609 818.478 197.609C806.086 197.609 799.565 190.435 799.565 176.087V113.478H838.043V90.0002H799.565V51.522L772.173 54.7828V90.0002H746.739V113.478H772.173V176.087C772.173 191.739 776.086 203.478 783.912 211.305C791.739 219.131 802.826 223.044 817.173 222.391C825.652 222.391 834.782 220.435 843.26 216.522L835.434 193.044Z" fill="#88D33F"/>
<path d="M660.648 5.86938C660.648 5.86938 595.43 6.52158 597.387 76.3042C597.387 76.3042 652.822 75.652 660.648 5.86938Z" fill="url(#paint0_linear_613_2)"/>
<path d="M559.564 0C559.564 0 602.607 9.78259 603.912 23.4782C605.216 37.1739 596.086 26.7391 596.738 61.9565C597.39 61.9565 568.694 60 559.564 0Z" fill="url(#paint1_linear_613_2)"/>
<defs>
<linearGradient id="paint0_linear_613_2" x1="597.135" y1="41.2009" x2="660.738" y2="41.2009" gradientUnits="userSpaceOnUse">
<stop stop-color="#7FAF41"/>
<stop offset="0.5251" stop-color="#9FD541"/>
<stop offset="1" stop-color="#B7D86D"/>
</linearGradient>
<linearGradient id="paint1_linear_613_2" x1="594.592" y1="-21.0404" x2="548.809" y2="125.699" gradientUnits="userSpaceOnUse">
<stop stop-color="#7FAF41"/>
<stop offset="0.5251" stop-color="#9FD541"/>
<stop offset="1" stop-color="#B7D86D"/>
</linearGradient>
</defs>
</svg>
