<?xml version="1.0"?>
<svg xmlns="http://www.w3.org/2000/svg" xmlns:xlink="http://www.w3.org/1999/xlink" version="1.1" id="Capa_1" x="0px" y="0px" viewBox="0 0 480 480" style="enable-background:new 0 0 480 480;" xml:space="preserve" width="512px" height="512px"><g><g>
	<g>
		<path d="M440,0H40C17.944,0,0,17.944,0,40v240c0,22.056,17.944,40,40,40h72v24c0,13.232,10.768,24,24,24h12.648l-36.184,101.312    c-0.872,2.448-0.504,5.168,0.992,7.296C114.952,478.736,117.4,480,120,480h40c3.384,0,6.4-2.128,7.528-5.312L205.632,368H216v104    c0,4.424,3.576,8,8,8h32c4.424,0,8-3.576,8-8V368h10.368l38.104,106.688C313.6,477.872,316.616,480,320,480h40    c2.6,0,5.04-1.264,6.536-3.392c1.496-2.128,1.864-4.848,0.992-7.296L331.352,368H344c13.232,0,24-10.768,24-24v-24h72    c22.056,0,40-17.944,40-40V40C480,17.944,462.056,0,440,0z M154.36,464h-23.008l34.288-96h23.008L154.36,464z M248,464h-16v-96h16    V464z M348.648,464H325.64l-34.288-96h23.008L348.648,464z M352,344c0,4.416-3.584,8-8,8h-24h-40h-24h-32h-24h-40h-24    c-4.416,0-8-3.584-8-8v-24h224V344z M464,280c0,13.232-10.768,24-24,24h-80H120H40c-13.232,0-24-10.768-24-24V40    c0-13.232,10.768-24,24-24h400c13.232,0,24,10.768,24,24V280z" data-original="#000000" class="active-path" data-old_color="#000000" fill="#FFFFFF"/>
	</g>
</g><g>
	<g>
		<path d="M112,32c-3.136,0-6.216,0.232-9.264,0.584c-0.856,0.096-1.696,0.264-2.544,0.392c-2.232,0.336-4.44,0.736-6.608,1.256    c-0.96,0.224-1.904,0.472-2.856,0.736c-2.088,0.576-4.136,1.248-6.152,1.984c-0.896,0.328-1.8,0.624-2.688,0.984    c-2.736,1.12-5.416,2.336-7.992,3.744c-0.064,0.032-0.128,0.056-0.184,0.088c-0.008,0.008-0.016,0-0.024,0.008    c-0.52,0.28-0.968,0.64-1.48,0.936C70.2,43.856,68.24,45.08,66.344,46.4c-1.136,0.784-2.208,1.624-3.296,2.464    c-1.224,0.952-2.424,1.936-3.592,2.96c-1.152,1.008-2.296,2.016-3.384,3.08c-1.032,1.008-1.984,2.072-2.952,3.128    c-1.648,1.8-3.208,3.656-4.68,5.584c-1.064,1.392-2.128,2.776-3.096,4.24c-0.704,1.064-1.336,2.168-1.992,3.272    c-0.96,1.608-1.872,3.248-2.728,4.928c-0.464,0.92-0.912,1.84-1.336,2.776c-1.088,2.376-2.056,4.808-2.912,7.296    c-0.104,0.304-0.232,0.592-0.328,0.896C34,93.232,32.736,99.776,32.28,106.552c0,0.048-0.016,0.096-0.016,0.144    c0,0.024,0.008,0.04,0.008,0.064C32.152,108.496,32,110.232,32,112c0,44.112,35.888,80,80,80c7.24,0,14.224-1.056,20.904-2.864    c0.04-0.008,0.088-0.008,0.128-0.016c0.096-0.024,0.176-0.064,0.272-0.088c1.856-0.512,3.68-1.096,5.48-1.744    c0.44-0.16,0.872-0.32,1.312-0.48c1.696-0.64,3.36-1.312,5-2.064c0.488-0.224,0.968-0.472,1.456-0.704    c1.592-0.768,3.168-1.544,4.704-2.416c0.328-0.184,0.64-0.392,0.96-0.584c3.296-1.928,6.448-4.056,9.424-6.424    c0.16-0.128,0.328-0.24,0.488-0.368c1.152-0.936,2.248-1.936,3.352-2.928c0.648-0.584,1.296-1.144,1.92-1.752    c1.024-0.984,2-2.008,2.968-3.048c0.616-0.664,1.232-1.328,1.824-2.008c0.936-1.072,1.848-2.168,2.728-3.288    c0.536-0.688,1.048-1.384,1.56-2.088c0.872-1.184,1.736-2.376,2.536-3.608c0.392-0.6,0.744-1.224,1.12-1.84    c1.864-3.04,3.568-6.184,5.024-9.48c0.048-0.112,0.104-0.216,0.16-0.328c0.552-1.264,1.024-2.568,1.512-3.864    c0.36-0.968,0.736-1.92,1.064-2.904c0.392-1.184,0.736-2.384,1.072-3.592c0.336-1.184,0.64-2.376,0.92-3.576    c0.256-1.096,0.496-2.2,0.704-3.312c0.28-1.472,0.488-2.968,0.68-4.464c0.12-0.912,0.256-1.808,0.344-2.728    c0.24-2.448,0.384-4.928,0.384-7.44C192,67.888,156.112,32,112,32z M52.376,88.936c0.12-0.32,0.216-0.656,0.352-0.968    c0.472-1.176,1.024-2.312,1.568-3.456c0.384-0.8,0.736-1.608,1.152-2.384c0.392-0.744,0.832-1.456,1.256-2.184    c0.648-1.112,1.296-2.232,2.008-3.304c0.296-0.448,0.624-0.88,0.936-1.32c0.896-1.272,1.808-2.528,2.792-3.728    c0.248-0.304,0.504-0.584,0.76-0.88c1.072-1.264,2.176-2.496,3.344-3.68c0.28-0.28,0.568-0.544,0.848-0.816    c1.152-1.12,2.336-2.216,3.576-3.248c0.408-0.344,0.832-0.664,1.248-0.992c0.784-0.624,1.6-1.216,2.408-1.808l19.488,35.72    l3.904,7.16L49.248,99.8C49.96,96.056,51.032,92.432,52.376,88.936z M112,176c-34.016,0-61.84-26.696-63.808-60.232l57.592,3.84    l15.184,55.688C118.032,175.712,115.056,176,112,176z M175.344,120.672c-0.088,0.632-0.184,1.264-0.288,1.896    c-0.968,5.76-2.696,11.296-5.128,16.472c-0.168,0.36-0.336,0.712-0.512,1.064c-2.584,5.24-5.856,10.104-9.744,14.448    c-0.24,0.272-0.48,0.536-0.728,0.8c-4,4.328-8.592,8.12-13.696,11.232c-0.216,0.136-0.432,0.264-0.656,0.4    c-2.608,1.544-5.328,2.936-8.176,4.112l-16.696-61.192c-0.168-0.6-0.4-1.176-0.696-1.728L88.648,52.48    c0.76-0.296,1.528-0.576,2.304-0.848c0.904-0.312,1.808-0.648,2.728-0.928c1-0.304,2.032-0.536,3.056-0.784    c0.976-0.24,1.952-0.504,2.936-0.696c1.128-0.224,2.288-0.368,3.432-0.528c0.888-0.128,1.768-0.288,2.664-0.376    c2.048-0.2,4.128-0.32,6.232-0.32c35.288,0,64,28.712,64,64C176,114.936,175.736,117.824,175.344,120.672z" data-original="#000000" class="active-path" data-old_color="#000000" fill="#FFFFFF"/>
	</g>
</g><g>
	<g>
		<path d="M432,128V40c0-4.424-3.576-8-8-8h-32c-4.424,0-8,3.576-8,8v88h-16V56c0-4.424-3.576-8-8-8h-32c-4.424,0-8,3.576-8,8v72    h-16V88c0-4.424-3.576-8-8-8h-32c-4.424,0-8,3.576-8,8v40h-16v16h24h32h32h32h32h32h24v-16H432z M288,128h-16V96h16V128z M352,128    h-16V64h16V128z M416,128h-16V48h16V128z" data-original="#000000" class="active-path" data-old_color="#000000" fill="#FFFFFF"/>
	</g>
</g><g>
	<g>
		<path d="M435.2,225.6l-25.456,19.088l-35.24-49.336c-1.368-1.912-3.504-3.136-5.848-3.328c-2.312-0.168-4.648,0.656-6.312,2.32    l-50.04,50.04l-66.36-73.736c-1.552-1.736-3.784-2.696-6.136-2.648c-2.336,0.056-4.52,1.128-6.008,2.936l-67.944,83.048    l-58.28-29.144c-2.656-1.32-5.816-1.072-8.224,0.648l-56,40l9.296,13.016l52.08-37.192l59.696,29.84    c3.336,1.664,7.4,0.808,9.776-2.096l66.096-80.784l65.768,73.072c1.472,1.632,3.536,2.584,5.736,2.648    c2.248-0.032,4.32-0.8,5.864-2.344l49.32-49.32l34.512,48.312c1.248,1.76,3.16,2.928,5.28,3.256    c2.168,0.328,4.304-0.208,6.024-1.504l32-24L435.2,225.6z" data-original="#000000" class="active-path" data-old_color="#000000" fill="#FFFFFF"/>
	</g>
</g></g> </svg>
