<?xml version="1.0" encoding="UTF-8"?>
<svg width="30px" height="30px" viewBox="0 0 30 30" version="1.1" xmlns="http://www.w3.org/2000/svg" xmlns:xlink="http://www.w3.org/1999/xlink">
    <!-- Generator: Sketch 57.1 (83088) - https://sketch.com -->
    <title>avatar_ico</title>
    <desc>Created with Sketch.</desc>
    <g id="Page-1" stroke="none" stroke-width="1" fill="none" fill-rule="evenodd">
        <g id="400_Desktop-HD-Copy-40" transform="translate(-1395.000000, -16.000000)">
            <g id="avatar_ico" transform="translate(1395.000000, 16.000000)">
                <circle id="Oval" fill="#303D42" fill-rule="nonzero" cx="15" cy="15" r="15"></circle>
                <path d="M20.4949455,15.5592961 L24.1959413,17.7802011 C25.1910654,18.3773582 25.2771002,19.434263 24.3723901,20.1258237 C24.3723901,20.1258237 19.5497624,24.1558683 15.8959056,24.897764 C11.4213046,25.8063074 5.84373987,20.3708514 5.45784072,19.9882974 L5.33797671,19.8685401 C4.78436331,19.2642578 4.92012218,18.4441832 5.67731188,17.9852028 L5.67731188,17.9852028 L9.67938135,15.5592961 C9.67938135,15.5592961 12.3906046,18.4411695 15.1313082,18.3950151 C17.1437506,18.3611248 20.4949455,15.5592961 20.4949455,15.5592961 L20.4949455,15.5592961 Z M15.1245171,5 C18.4291938,5 20.5899281,7.5497513 20.5899281,10.6950289 C20.5899281,13.8403065 17.244064,16.3900578 15.1245171,16.3900578 C13.0049701,16.3900578 9.65910609,13.8403065 9.65910609,10.6950289 C9.65910609,7.5497513 11.8198403,5 15.1245171,5 Z" id="Combined-Shape" fill="#6BCCD1"></path>
            </g>
        </g>
    </g>
</svg>