<svg width="15" height="17" viewBox="0 0 15 17" fill="none" xmlns="http://www.w3.org/2000/svg">
<path d="M6.34149e-08 4.82202V14.465C-6.84058e-05 14.7464 0.0553086 15.0251 0.162967 15.2851C0.270626 15.5451 0.428457 15.7813 0.627443 15.9803C0.826429 16.1793 1.06267 16.3371 1.32267 16.4448C1.58267 16.5525 1.86134 16.6078 2.14275 16.6078H12.8573C13.1387 16.6078 13.4173 16.5525 13.6773 16.4448C13.9373 16.3371 14.1736 16.1793 14.3726 15.9803C14.5715 15.7813 14.7294 15.5451 14.837 15.2851C14.9447 15.0251 15.0001 14.7464 15 14.465V4.82202H6.34149e-08Z" fill="#F3F0F3"/>
<path d="M14.4642 14.429H3.75C3.46857 14.429 3.18988 14.3736 2.92987 14.266C2.66985 14.1583 2.43359 14.0004 2.23461 13.8014C2.03562 13.6024 1.87779 13.3661 1.77015 13.1061C1.6625 12.8461 1.60715 12.5674 1.60725 12.286V5.35767H6.34149e-08V14.4649C-6.84058e-05 14.7463 0.0553086 15.025 0.162967 15.285C0.270626 15.545 0.428457 15.7812 0.627443 15.9802C0.826429 16.1792 1.06267 16.337 1.32267 16.4447C1.58267 16.5524 1.86134 16.6077 2.14275 16.6077H12.8573C13.1387 16.6077 13.4173 16.5524 13.6773 16.4447C13.9373 16.337 14.1736 16.1792 14.3726 15.9802C14.5715 15.7812 14.7294 15.545 14.837 15.285C14.9447 15.025 15.0001 14.7463 15 14.4649V14.3586C14.8251 14.4046 14.6451 14.4283 14.4642 14.429Z" fill="#2E4058" fill-opacity="0.32"/>
<path d="M15 4.2863V5.3578H6.34149e-08V4.2863C-6.84058e-05 4.00489 0.0553086 3.72623 0.162967 3.46623C0.270626 3.20623 0.428457 2.96998 0.627443 2.771C0.826429 2.57201 1.06267 2.41418 1.32267 2.30652C1.58267 2.19886 1.86134 2.14349 2.14275 2.14355H12.8573C13.1387 2.14349 13.4173 2.19886 13.6773 2.30652C13.9373 2.41418 14.1736 2.57201 14.3726 2.771C14.5715 2.96998 14.7294 3.20623 14.837 3.46623C14.9447 3.72623 15.0001 4.00489 15 4.2863Z" fill="#2E4058"/>
<path d="M2.67929 4.25034C2.53861 4.25034 2.39931 4.22264 2.26934 4.1688C2.13937 4.11497 2.02128 4.03606 1.92181 3.93658C1.82233 3.83711 1.74343 3.71902 1.68959 3.58905C1.63576 3.45908 1.60805 3.31978 1.60805 3.1791C1.60736 2.82439 1.69513 2.4751 1.86342 2.16284C1.3483 2.23043 0.875329 2.483 0.532642 2.87349C0.189955 3.26397 0.000930463 3.76573 0.000793457 4.28526V5.35677H15V4.2863L14.9641 4.25034H2.67929Z" fill="#2E4058"/>
<path d="M12.0535 2.14353V3.08161C12.0535 3.33041 11.9547 3.56902 11.7788 3.74494C11.6029 3.92087 11.3643 4.0197 11.1155 4.0197C10.8667 4.0197 10.6281 3.92087 10.4521 3.74494C10.2762 3.56902 10.1774 3.33041 10.1774 3.08161V0.938086C10.1774 0.68929 10.2762 0.450684 10.4521 0.274759C10.6281 0.0988338 10.8667 0 11.1155 0C11.364 0.000960796 11.602 0.100103 11.7777 0.275821C11.9534 0.451538 12.0526 0.689586 12.0535 0.938086V2.14353Z" fill="#F3F0F3"/>
<path d="M11.5179 7.76836L11.5098 14.1971C11.5123 14.2665 11.5009 14.3358 11.4761 14.4007C11.4514 14.4656 11.4138 14.5248 11.3657 14.575C11.3177 14.6251 11.26 14.665 11.1962 14.6924C11.1323 14.7199 11.0636 14.7342 10.9942 14.7345C10.9247 14.7349 10.8559 14.7212 10.7918 14.6945C10.7277 14.6677 10.6696 14.6283 10.621 14.5787C10.5724 14.5291 10.5343 14.4702 10.5089 14.4055C10.4835 14.3409 10.4714 14.2718 10.4732 14.2023V14.1971L10.4787 9.188C10.4798 9.1414 10.4685 9.09534 10.4458 9.05462C10.4231 9.0139 10.3899 8.98001 10.3497 8.95648C10.3095 8.93295 10.2636 8.92065 10.217 8.92086C10.1704 8.92106 10.1247 8.93377 10.0847 8.95765L9.62684 9.24168C9.56849 9.27804 9.50337 9.3022 9.43543 9.3127C9.36749 9.3232 9.29812 9.31983 9.23151 9.30278C9.16491 9.28573 9.10245 9.25537 9.0479 9.21352C8.99336 9.17166 8.94786 9.1192 8.91415 9.05928C8.86464 8.97483 8.83881 8.8786 8.83936 8.78072C8.83893 8.68926 8.86182 8.5992 8.90586 8.51905C8.94991 8.4389 9.01365 8.37129 9.09108 8.32262L10.7312 7.31053C10.8109 7.26262 10.902 7.23699 10.995 7.23634C11.088 7.23569 11.1795 7.26002 11.2599 7.30681C11.3403 7.35359 11.4066 7.42111 11.452 7.5023C11.4974 7.58349 11.5201 7.67538 11.5179 7.76836V7.76836Z" fill="#2E4058"/>
<path d="M7.04183 10.9829C7.31044 11.2197 7.51541 11.5201 7.63802 11.8565C7.76063 12.193 7.79697 12.5548 7.74372 12.9089C7.69047 13.263 7.54933 13.5981 7.33319 13.8836C7.11705 14.1691 6.8328 14.3958 6.50643 14.5432C6.18006 14.6905 5.82197 14.7537 5.46488 14.727C5.1078 14.7003 4.7631 14.5845 4.4623 14.3902C4.16149 14.1959 3.91417 13.9294 3.74294 13.6149C3.5717 13.3004 3.48201 12.948 3.48206 12.5899C3.48206 12.4478 3.5385 12.3116 3.63897 12.2111C3.73945 12.1106 3.87572 12.0542 4.01781 12.0542C4.1599 12.0542 4.29617 12.1106 4.39664 12.2111C4.49711 12.3116 4.55356 12.4478 4.55356 12.5899C4.55821 12.8439 4.65108 13.0884 4.81625 13.2814C4.98141 13.4744 5.20858 13.604 5.45881 13.6479C5.62986 13.6746 5.80485 13.6596 5.96882 13.604C6.13278 13.5484 6.28084 13.4539 6.40035 13.3286C6.51986 13.2034 6.60726 13.051 6.65507 12.8846C6.70289 12.7182 6.70971 12.5427 6.67494 12.3731C6.61985 12.1342 6.48672 11.9205 6.29659 11.7657C6.10646 11.6109 5.87017 11.5239 5.62506 11.5184C5.55373 11.52 5.4828 11.5073 5.41644 11.4811C5.35008 11.4549 5.28962 11.4157 5.23861 11.3658C5.18761 11.3159 5.14708 11.2563 5.11942 11.1905C5.09175 11.1248 5.0775 11.0541 5.0775 10.9828C5.0775 10.9114 5.09175 10.8408 5.11942 10.775C5.14708 10.7093 5.18761 10.6497 5.23861 10.5998C5.28962 10.5499 5.35008 10.5107 5.41644 10.4845C5.4828 10.4583 5.55373 10.4456 5.62506 10.4472C5.90874 10.4474 6.1809 10.335 6.38176 10.1347C6.58262 9.93433 6.69575 9.66247 6.6963 9.37879C6.69561 9.29321 6.68574 9.20795 6.66686 9.12447C6.60549 8.86931 6.45262 8.64554 6.23723 8.49561C6.02184 8.34567 5.75892 8.28 5.49833 8.31104C5.23773 8.34208 4.99759 8.46767 4.82345 8.66401C4.64931 8.86034 4.55327 9.11375 4.55356 9.37619C4.54973 9.51697 4.49203 9.65092 4.39234 9.75041C4.29266 9.8499 4.1586 9.90734 4.01781 9.9109C3.87628 9.90907 3.74107 9.85204 3.64099 9.75196C3.54091 9.65188 3.48388 9.51667 3.48206 9.37515C3.49294 8.83478 3.70336 8.31755 4.07279 7.92305C4.44223 7.52855 4.94456 7.28467 5.48305 7.23839C5.92944 7.20862 6.37396 7.31935 6.75422 7.55505C7.13449 7.79075 7.43142 8.1396 7.60334 8.55263C7.77527 8.96566 7.81357 9.42216 7.71287 9.85807C7.61216 10.294 7.37751 10.6874 7.04183 10.9832V10.9829Z" fill="#2E4058"/>
<path d="M4.55372 2.14353V3.08161C4.55372 3.33041 4.45489 3.56902 4.27896 3.74494C4.10304 3.92087 3.86443 4.0197 3.61564 4.0197C3.36684 4.0197 3.12824 3.92087 2.95231 3.74494C2.77639 3.56902 2.67755 3.33041 2.67755 3.08161V0.938086C2.67851 0.689586 2.77765 0.451538 2.95337 0.275821C3.12909 0.100103 3.36714 0.000960796 3.61564 0C3.86426 0.00055067 4.10255 0.0995613 4.27836 0.275367C4.45416 0.451173 4.55317 0.68946 4.55372 0.938086V2.14353Z" fill="#F3F0F3"/>
</svg>
