<svg width="20" height="23" viewBox="0 0 20 23" fill="none" xmlns="http://www.w3.org/2000/svg">
<path d="M5.48613 5.58098C5.10396 5.58098 4.79419 5.27121 4.79419 4.88904V0.691941C4.79419 0.309773 5.10396 0 5.48613 0C5.8683 0 6.17807 0.309773 6.17807 0.691941V4.88904C6.17807 5.27121 5.8683 5.58098 5.48613 5.58098Z" fill="#9B9B9B"/>
<path d="M14.5138 5.58098C14.1317 5.58098 13.8219 5.27121 13.8219 4.88904V0.691941C13.8219 0.309773 14.1317 0 14.5138 0C14.896 0 15.2058 0.309773 15.2058 0.691941V4.88904C15.2058 5.27121 14.896 5.58098 14.5138 5.58098Z" fill="#9B9B9B"/>
<path d="M0 9.59961V19.147C0 20.7745 1.32407 22.0986 2.95161 22.0986H17.0484C18.6759 22.0986 20 20.7745 20 19.147V9.59961H0Z" fill="#9B9B9B"/>
<path d="M20 8.21583V5.05028C20 3.42275 18.6759 2.09868 17.0484 2.09868H16.5897V4.88915C16.5897 6.03379 15.6585 6.96497 14.5139 6.96497C13.3692 6.96497 12.438 6.03379 12.438 4.88915V2.09863H7.56197V4.8891C7.56197 6.03375 6.63079 6.96493 5.48614 6.96493C4.3415 6.96493 3.41032 6.03375 3.41032 4.8891V2.09863H2.95161C1.32407 2.09863 0 3.42271 0 5.05024V8.21578H20V8.21583Z" fill="#9B9B9B"/>
</svg>
