<?xml version="1.0" encoding="UTF-8"?>
<svg width="17px" height="25px" viewBox="0 0 17 25" version="1.1" xmlns="http://www.w3.org/2000/svg" xmlns:xlink="http://www.w3.org/1999/xlink">
    <!-- Generator: Sketch 57.1 (83088) - https://sketch.com -->
    <title>collapse</title>
    <desc>Created with Sketch.</desc>
    <g id="assets" stroke="none" stroke-width="1" fill="none" fill-rule="evenodd">
        <g transform="translate(-169.000000, -15.000000)" id="collapse">
            <g transform="translate(169.000000, 15.000000)">
                <path d="M7.48703593,5.00042179 C7.27089563,5.0065225 7.06559785,5.09637243 6.91453706,5.25097971 L0.344954232,11.8168677 C0.125258488,11.9756022 -0.00340145969,12.2312473 0,12.5021496 C0,12.5050365 0,12.5079235 0,12.5108104 C0,12.5165831 0,12.5223563 0,12.528129 C0.00638733759,12.7909984 0.13660826,13.035432 0.351308889,13.1874313 L6.91453706,19.7463914 C7.12362449,19.9623318 7.43293209,20.0489091 7.72383883,19.9729205 C8.01474557,19.8969319 8.24209878,19.6701717 8.31870737,19.3796038 C8.39531596,19.0890359 8.30928923,18.7797602 8.09361887,18.5703855 L2.85158626,13.3311845 L14.1681147,13.3311845 L15,13.3311845 L15,11.6661867 L14.1681147,11.6661867 L2.8538972,11.6661867 L8.09361887,6.42987217 C8.34048715,6.19043792 8.41468248,5.82397689 8.2803729,5.50746803 C8.14606332,5.19095916 7.83087926,4.98951526 7.48703593,5.00042179 Z" id="Path" fill="#FFFFFF"></path>
                <path d="M15.5,0.9 L15.5,23.9" id="Line" stroke="#FFFFFF" stroke-width="1.5" stroke-linecap="round"></path>
            </g>
        </g>
    </g>
</svg>