<?xml version="1.0" encoding="UTF-8"?>
<svg width="24px" height="25px" viewBox="0 0 24 25" version="1.1" xmlns="http://www.w3.org/2000/svg" xmlns:xlink="http://www.w3.org/1999/xlink">
    <!-- Generator: Sketch 57.1 (83088) - https://sketch.com -->
    <title>configuration</title>
    <desc>Created with Sketch.</desc>
    <g id="Page-1" stroke="none" stroke-width="1" fill="none" fill-rule="evenodd">
        <g id="400_Desktop-HD-Copy-40" transform="translate(-13.000000, -187.000000)" fill="#FFFFFF" fill-rule="nonzero">
            <g id="Group-2">
                <g id="configuration" transform="translate(13.000000, 187.000000)">
                    <g id="Group" transform="translate(0.000000, 0.177996)">
                        <path d="M9.99418605,0.101073488 C9.70654572,0.128182763 9.48712632,0.370300722 9.48837209,0.659213023 L9.48837209,3.56328279 C8.87112223,3.74429023 8.2813627,3.98394419 7.72674419,4.28712 L5.68604651,2.2377014 C5.46858514,2.02271118 5.11862416,2.02271118 4.90116279,2.2377014 L2.13662791,5.00223628 C1.92163769,5.21969765 1.92163769,5.56965863 2.13662791,5.78712 L4.18604651,7.82781767 C3.88287126,8.38243535 3.6432173,8.97219628 3.4622093,9.58944558 L0.558139535,9.58944558 C0.249900348,9.5894764 0,9.83934593 0,10.1475851 L0,14.0545619 C0,14.362801 0.249900348,14.6126706 0.558139535,14.6127014 L3.4622093,14.6127014 C3.6432173,15.2299479 3.88287098,15.819706 4.18604651,16.3743293 L2.13662791,18.415027 C1.92163769,18.6324883 1.92163769,18.9824493 2.13662791,19.1999107 L4.90116279,21.9644456 C5.11862416,22.1794358 5.46858514,22.1794358 5.68604651,21.9644456 L7.72674419,19.915027 C8.28136298,20.2182084 8.87112251,20.4578595 9.48837209,20.6388642 L9.48837209,23.542934 C9.48840291,23.8511731 9.73827244,24.1010735 10.0465116,24.1010735 L13.9534884,24.1010735 C14.2617276,24.1010735 14.5115971,23.8511731 14.5116279,23.542934 L14.5116279,20.2377014 C14.5144746,20.0364162 14.4087208,19.8491909 14.2348617,19.7477176 C14.0610026,19.6462442 13.8459742,19.6462442 13.6721151,19.7477176 C13.498256,19.8491909 13.3925022,20.0364162 13.3953488,20.2377014 L13.3953488,22.9847944 L10.6046512,22.9847944 L10.6046512,20.2377014 C10.6037573,19.9805545 10.4273071,19.757291 10.1773256,19.6970037 C9.36676633,19.5029944 8.60756177,19.1786874 7.91860465,18.7551433 C7.69662257,18.620432 7.41106547,18.6565784 7.22965116,18.8423526 L5.29360465,20.78712 L3.31395349,18.8074688 L5.25872093,16.8714223 C5.44449507,16.690008 5.48064154,16.4044509 5.34593023,16.1824688 C4.92239498,15.4935014 4.59807405,14.734306 4.40406977,13.9237479 C4.34378248,13.6737664 4.12051896,13.4973162 3.86337209,13.4964223 L1.11627907,13.4964223 L1.11627907,10.7057247 L3.86337209,10.7057247 C4.12051896,10.7048308 4.34378248,10.5283806 4.40406977,10.2783991 C4.59807405,9.46783814 4.92239442,8.70863721 5.34593023,8.01967814 C5.48064154,7.79769606 5.44449507,7.51213895 5.25872093,7.33072465 L3.31395349,5.39467814 L5.29360465,3.41502698 L7.22965116,5.35979442 C7.41106547,5.54556856 7.69662257,5.58171502 7.91860465,5.44700372 C8.60756233,5.02346791 9.36676688,4.69914698 10.1773256,4.50514326 C10.4273071,4.44485596 10.6037573,4.22159244 10.6046512,3.96444558 L10.6046512,1.21735256 L13.3953488,1.21735256 L13.3953488,3.96444558 C13.3962427,4.22159244 13.5726929,4.44485596 13.8226744,4.50514326 C14.6332334,4.69914698 15.3924377,5.02346791 16.0813953,5.44700372 C16.3033774,5.58171502 16.5889345,5.54556856 16.7703488,5.35979442 L18.7063953,3.41502698 L20.6860465,5.39467814 L18.7412791,7.33072465 C18.5555049,7.51213895 18.5193585,7.79769606 18.6540698,8.01967814 C19.0776053,8.70863721 19.401926,9.46783814 19.5959302,10.2783991 C19.6562175,10.5283806 19.879481,10.7048308 20.1366279,10.7057247 L22.8837209,10.7057247 L22.8837209,13.4964223 L20.1366279,13.4964223 C19.879481,13.4973162 19.6562175,13.6737664 19.5959302,13.9237479 C19.4593473,14.4944096 19.2573215,15.0399131 19.002907,15.5545619 L17.2761628,13.8365386 C17.458102,13.2888363 17.5813953,12.7122642 17.5813953,12.1010735 C17.5813951,9.02514977 15.0759067,6.51967814 12,6.51967814 C11.3606213,6.51967814 10.7511447,6.63034884 10.1860465,6.8249107 C10.0038692,6.88813509 9.86722733,7.04091169 9.8246441,7.22898764 C9.78206086,7.4170636 9.83956806,7.61379847 9.97674419,7.7493293 L12.6889535,10.4615386 L12.3575581,12.4586316 L10.3604651,12.790027 L7.64825581,10.0778177 C7.51272498,9.94064155 7.31599011,9.88313435 7.12791415,9.92571758 C6.9398382,9.96830082 6.78706161,10.1049427 6.72383721,10.28712 C6.52927256,10.8522223 6.41860465,11.4616967 6.41860465,12.1010735 C6.41860465,15.1769805 8.92409247,17.6824688 12,17.6824688 C12.6111985,17.6824688 13.1877494,17.5591898 13.7354651,17.3772363 L18.3139535,21.9644456 C18.5314149,22.1794358 18.8813758,22.1794358 19.0988372,21.9644456 L21.8633721,19.1999107 C22.0783623,18.9824493 22.0783623,18.6324883 21.8633721,18.415027 L19.8226744,16.3830502 C20.12161,15.8266942 20.3558461,15.2312807 20.5377907,14.6127014 L23.4418605,14.6127014 C23.7500997,14.6126706 24,14.362801 24,14.0545619 L24,10.1475851 C24,9.83934593 23.7500997,9.5894764 23.4418605,9.58944558 L20.5377907,9.58944558 C20.3567824,8.97219628 20.1171287,8.38243535 19.8139535,7.82781767 L21.8633721,5.78712 C22.0783623,5.56965863 22.0783623,5.21969765 21.8633721,5.00223628 L19.0988372,2.2377014 C18.8813758,2.02271118 18.5314149,2.02271118 18.3139535,2.2377014 L16.2732558,4.28712 C15.7186376,3.98394419 15.1288778,3.74429023 14.5116279,3.56328279 L14.5116279,0.659213023 C14.5115971,0.350973837 14.2617276,0.101104308 13.9534884,0.101073488 L10.0465116,0.101073488 C10.0290794,0.100460022 10.0116183,0.100460022 9.99418605,0.101073488 Z M12,7.63595721 C14.4726271,7.63595721 16.465116,9.62843163 16.4651163,12.1010735 C16.4651163,12.6968037 16.3471769,13.2612084 16.1337209,13.784213 C16.0505367,13.9911726 16.0985451,14.2277853 16.255814,14.3859572 L18.6540698,16.7754921 L18.6715116,16.792934 C18.6770787,16.8018169 18.682895,16.8105413 18.6889535,16.8190967 C18.7230723,16.8658807 18.7642626,16.907071 18.8110465,16.9411898 C18.8139213,16.9441288 18.8168284,16.9470359 18.8197674,16.9499107 L20.6860465,18.8074688 L18.7063953,20.78712 L14.2848837,16.3568874 C14.1267118,16.1996186 13.8900991,16.1516102 13.6831395,16.2347944 C13.1601181,16.4482549 12.5957291,16.5661898 12,16.5661898 C9.52737656,16.5661898 7.53488372,14.5736874 7.53488372,12.1010735 C7.53488372,11.9331572 7.6030546,11.7841758 7.62209302,11.6214223 L9.78488372,13.784213 C9.91256616,13.9126719 10.0946384,13.9711951 10.2732558,13.9411898 L12.9331395,13.4877014 C13.1647213,13.4471269 13.3460534,13.2657948 13.3866279,13.034213 L13.8401163,10.3743293 C13.8701216,10.1957119 13.8115984,10.0136396 13.6831395,9.88595721 L11.5203488,7.72316651 C11.6830928,7.70413395 11.8320776,7.63595721 12,7.63595721 Z" id="Shape"></path>
                    </g>
                </g>
            </g>
        </g>
    </g>
</svg>