<?xml version="1.0" encoding="UTF-8"?>
<svg width="23px" height="21px" viewBox="0 0 23 21" version="1.1" xmlns="http://www.w3.org/2000/svg" xmlns:xlink="http://www.w3.org/1999/xlink">
    <!-- Generator: Sketch 57.1 (83088) - https://sketch.com -->
    <title>data_ico</title>
    <desc>Created with Sketch.</desc>
    <g id="Page-1" stroke="none" stroke-width="1" fill="none" fill-rule="evenodd">
        <g id="400_Desktop-HD-Copy-40" transform="translate(-13.000000, -253.000000)" fill="#FFFFFF" fill-rule="nonzero">
            <g id="Group-2">
                <g id="data_ico" transform="translate(13.000000, 253.000000)">
                    <g id="Group">
                        <path d="M18.5840985,7.29473684 L3.60537514,7.29473684 C1.66650315,7.29473684 0.0947368421,8.56719071 0.0947368421,10.1368421 L0.0947368421,10.7289474 C0.0947368421,12.2985988 1.66650315,13.5710526 3.60537514,13.5710526 L18.5840985,13.5710526 C20.5229705,13.5710526 22.0947368,12.2985988 22.0947368,10.7289474 L22.0947368,10.1368421 C22.0947368,8.56719071 20.5229705,7.29473684 18.5840985,7.29473684 Z M1.85005599,10.7289474 L1.85005599,10.1368421 C1.85005599,9.35201641 2.63593914,8.71578947 3.60537514,8.71578947 L14.7223964,8.71578947 L14.7223964,12.15 L3.60537514,12.15 C2.63593914,12.15 1.85005599,11.5137731 1.85005599,10.7289474 Z M20.368673,10.7289474 C20.368673,11.5137731 19.5827899,12.15 18.6133539,12.15 L16.4777156,12.15 L16.4777156,8.71578947 L18.6133539,8.71578947 C19.5827899,8.71578947 20.368673,9.35201641 20.368673,10.1368421 L20.368673,10.7289474 Z" id="Shape"></path>
                        <path d="M3.17368421,9.30789474 C2.78127136,9.30789474 2.46315789,9.6260082 2.46315789,10.0184211 L2.46315789,10.8473684 C2.46315789,11.2397813 2.78127136,11.5578947 3.17368421,11.5578947 C3.56609706,11.5578947 3.88421053,11.2397813 3.88421053,10.8473684 L3.88421053,10.0184211 C3.88421053,9.6260082 3.56609706,9.30789474 3.17368421,9.30789474 L3.17368421,9.30789474 Z" id="Path"></path>
                        <path d="M5.54210526,9.30789474 C5.14969241,9.30789474 4.83157895,9.6260082 4.83157895,10.0184211 L4.83157895,10.8473684 C4.83157895,11.2397813 5.14969241,11.5578947 5.54210526,11.5578947 C5.93451811,11.5578947 6.25263158,11.2397813 6.25263158,10.8473684 L6.25263158,10.0184211 C6.25263158,9.6260082 5.93451811,9.30789474 5.54210526,9.30789474 Z" id="Path"></path>
                        <path d="M7.91052632,9.30789474 C7.51811347,9.30789474 7.2,9.6260082 7.2,10.0184211 L7.2,10.8473684 C7.2,11.2397813 7.51811347,11.5578947 7.91052632,11.5578947 C8.30293916,11.5578947 8.62105263,11.2397813 8.62105263,10.8473684 L8.62105263,10.0184211 C8.62105263,9.6260082 8.30293916,9.30789474 7.91052632,9.30789474 Z" id="Path"></path>
                        <path d="M10.2789474,9.30789474 C9.88653452,9.30789474 9.56842105,9.6260082 9.56842105,10.0184211 L9.56842105,10.8473684 C9.56842105,11.2397813 9.88653452,11.5578947 10.2789474,11.5578947 C10.6713602,11.5578947 10.9894737,11.2397813 10.9894737,10.8473684 L10.9894737,10.0184211 C10.9894737,9.6260082 10.6713602,9.30789474 10.2789474,9.30789474 L10.2789474,9.30789474 Z" id="Path"></path>
                        <path d="M18.5840985,0.189473684 L3.60537514,0.189473684 C1.66650315,0.189473684 0.0947368421,1.46192755 0.0947368421,3.03157895 L0.0947368421,3.62368421 C0.0947368421,5.1933356 1.66650315,6.46578947 3.60537514,6.46578947 L18.5840985,6.46578947 C20.5229705,6.46578947 22.0947368,5.1933356 22.0947368,3.62368421 L22.0947368,3.03157895 C22.0947368,1.46192755 20.5229705,0.189473684 18.5840985,0.189473684 Z M1.85005599,3.62368421 L1.85005599,3.03157895 C1.85005599,2.24675325 2.63593914,1.61052632 3.60537514,1.61052632 L14.7223964,1.61052632 L14.7223964,5.04473684 L3.60537514,5.04473684 C2.63593914,5.04473684 1.85005599,4.40850991 1.85005599,3.62368421 L1.85005599,3.62368421 Z M20.368673,3.62368421 C20.368673,4.40850991 19.5827899,5.04473684 18.6133539,5.04473684 L16.4777156,5.04473684 L16.4777156,1.61052632 L18.6133539,1.61052632 C19.5827899,1.61052632 20.368673,2.24675325 20.368673,3.03157895 L20.368673,3.62368421 Z" id="Shape"></path>
                        <path d="M3.17368421,2.20263158 C2.78127136,2.20263158 2.46315789,2.52074505 2.46315789,2.91315789 L2.46315789,3.74210526 C2.46315789,4.13451811 2.78127136,4.45263158 3.17368421,4.45263158 C3.56609706,4.45263158 3.88421053,4.13451811 3.88421053,3.74210526 L3.88421053,2.91315789 C3.88421053,2.52074505 3.56609706,2.20263158 3.17368421,2.20263158 L3.17368421,2.20263158 Z" id="Path"></path>
                        <path d="M5.54210526,2.20263158 C5.14969241,2.20263158 4.83157895,2.52074505 4.83157895,2.91315789 L4.83157895,3.74210526 C4.83157895,4.13451811 5.14969241,4.45263158 5.54210526,4.45263158 C5.93451811,4.45263158 6.25263158,4.13451811 6.25263158,3.74210526 L6.25263158,2.91315789 C6.25263158,2.52074505 5.93451811,2.20263158 5.54210526,2.20263158 Z" id="Path"></path>
                        <path d="M7.91052632,2.20263158 C7.51811347,2.20263158 7.2,2.52074505 7.2,2.91315789 L7.2,3.74210526 C7.2,4.13451811 7.51811347,4.45263158 7.91052632,4.45263158 C8.30293916,4.45263158 8.62105263,4.13451811 8.62105263,3.74210526 L8.62105263,2.91315789 C8.62105263,2.52074505 8.30293916,2.20263158 7.91052632,2.20263158 Z" id="Path"></path>
                        <path d="M10.2789474,2.20263158 C9.88653452,2.20263158 9.56842105,2.52074505 9.56842105,2.91315789 L9.56842105,3.74210526 C9.56842105,4.13451811 9.88653452,4.45263158 10.2789474,4.45263158 C10.6713602,4.45263158 10.9894737,4.13451811 10.9894737,3.74210526 L10.9894737,2.91315789 C10.9894737,2.52074505 10.6713602,2.20263158 10.2789474,2.20263158 L10.2789474,2.20263158 Z" id="Path"></path>
                        <path d="M18.5840985,14.4 L3.60537514,14.4 C1.66650315,14.4 0.0947368421,15.6724539 0.0947368421,17.2421053 L0.0947368421,17.8342105 C0.0947368421,19.4038619 1.66650315,20.6763158 3.60537514,20.6763158 L18.5840985,20.6763158 C20.5229705,20.6763158 22.0947368,19.4038619 22.0947368,17.8342105 L22.0947368,17.2421053 C22.0947368,15.6724539 20.5229705,14.4 18.5840985,14.4 Z M1.85005599,17.8342105 L1.85005599,17.2421053 C1.85005599,16.4572796 2.63593914,15.8210526 3.60537514,15.8210526 L14.7223964,15.8210526 L14.7223964,19.2552632 L3.60537514,19.2552632 C2.63593914,19.2552632 1.85005599,18.6190362 1.85005599,17.8342105 Z M20.368673,17.8342105 C20.368673,18.6190362 19.5827899,19.2552632 18.6133539,19.2552632 L16.4777156,19.2552632 L16.4777156,15.8210526 L18.6133539,15.8210526 C19.5827899,15.8210526 20.368673,16.4572796 20.368673,17.2421053 L20.368673,17.8342105 Z" id="Shape"></path>
                        <path d="M3.17368421,16.4131579 C2.78127136,16.4131579 2.46315789,16.7312714 2.46315789,17.1236842 L2.46315789,17.9526316 C2.46315789,18.3450444 2.78127136,18.6631579 3.17368421,18.6631579 C3.56609706,18.6631579 3.88421053,18.3450444 3.88421053,17.9526316 L3.88421053,17.1236842 C3.88421053,16.7312714 3.56609706,16.4131579 3.17368421,16.4131579 L3.17368421,16.4131579 Z" id="Path"></path>
                        <path d="M5.54210526,16.4131579 C5.14969241,16.4131579 4.83157895,16.7312714 4.83157895,17.1236842 L4.83157895,17.9526316 C4.83157895,18.3450444 5.14969241,18.6631579 5.54210526,18.6631579 C5.93451811,18.6631579 6.25263158,18.3450444 6.25263158,17.9526316 L6.25263158,17.1236842 C6.25263158,16.7312714 5.93451811,16.4131579 5.54210526,16.4131579 Z" id="Path"></path>
                        <path d="M7.91052632,16.4131579 C7.51811347,16.4131579 7.2,16.7312714 7.2,17.1236842 L7.2,17.9526316 C7.2,18.3450444 7.51811347,18.6631579 7.91052632,18.6631579 C8.30293916,18.6631579 8.62105263,18.3450444 8.62105263,17.9526316 L8.62105263,17.1236842 C8.62105263,16.7312714 8.30293916,16.4131579 7.91052632,16.4131579 Z" id="Path"></path>
                        <path d="M10.2789474,16.4131579 C9.88653452,16.4131579 9.56842105,16.7312714 9.56842105,17.1236842 L9.56842105,17.9526316 C9.56842105,18.3450444 9.88653452,18.6631579 10.2789474,18.6631579 C10.6713602,18.6631579 10.9894737,18.3450444 10.9894737,17.9526316 L10.9894737,17.1236842 C10.9894737,16.7312714 10.6713602,16.4131579 10.2789474,16.4131579 L10.2789474,16.4131579 Z" id="Path"></path>
                    </g>
                </g>
            </g>
        </g>
    </g>
</svg>