<svg id="Layer_1" data-name="Layer 1" xmlns="http://www.w3.org/2000/svg" viewBox="0 0 34.86 38.51"><defs><style>.cls-1{fill:none;stroke:#616161;stroke-linecap:round;stroke-linejoin:round;stroke-width:2px;}</style></defs><path class="cls-1" d="M8.43,13.79H41.28" transform="translate(-7.43 -5.49)"/><path class="cls-1" d="M17.55,13.79V10.14A3.65,3.65,0,0,1,21.2,6.49h7.31a3.65,3.65,0,0,1,3.65,3.65v3.65m5.47,0V39.35A3.65,3.65,0,0,1,34,43H15.73a3.65,3.65,0,0,1-3.65-3.65V13.79Z" transform="translate(-7.43 -5.49)"/><path class="cls-1" d="M21.2,22.92V33.87" transform="translate(-7.43 -5.49)"/><path class="cls-1" d="M28.51,22.92V33.87" transform="translate(-7.43 -5.49)"/><path class="cls-1" d="M8.43,13.79H41.28" transform="translate(-7.43 -5.49)"/><path class="cls-1" d="M17.55,13.79V10.14A3.65,3.65,0,0,1,21.2,6.49h7.31a3.65,3.65,0,0,1,3.65,3.65v3.65m5.47,0V39.35A3.65,3.65,0,0,1,34,43H15.73a3.65,3.65,0,0,1-3.65-3.65V13.79Z" transform="translate(-7.43 -5.49)"/><path class="cls-1" d="M21.2,22.92V33.87" transform="translate(-7.43 -5.49)"/><path class="cls-1" d="M28.51,22.92V33.87" transform="translate(-7.43 -5.49)"/><path class="cls-1" d="M8.43,13.79H41.28" transform="translate(-7.43 -5.49)"/><path class="cls-1" d="M17.55,13.79V10.14A3.65,3.65,0,0,1,21.2,6.49h7.31a3.65,3.65,0,0,1,3.65,3.65v3.65m5.47,0V39.35A3.65,3.65,0,0,1,34,43H15.73a3.65,3.65,0,0,1-3.65-3.65V13.79Z" transform="translate(-7.43 -5.49)"/><path class="cls-1" d="M21.2,22.92V33.87" transform="translate(-7.43 -5.49)"/><path class="cls-1" d="M28.51,22.92V33.87" transform="translate(-7.43 -5.49)"/><path class="cls-1" d="M8.43,13.79H41.28" transform="translate(-7.43 -5.49)"/><path class="cls-1" d="M17.55,13.79V10.14A3.65,3.65,0,0,1,21.2,6.49h7.31a3.65,3.65,0,0,1,3.65,3.65v3.65m5.47,0V39.35A3.65,3.65,0,0,1,34,43H15.73a3.65,3.65,0,0,1-3.65-3.65V13.79Z" transform="translate(-7.43 -5.49)"/><path class="cls-1" d="M21.2,22.92V33.87" transform="translate(-7.43 -5.49)"/><path class="cls-1" d="M28.51,22.92V33.87" transform="translate(-7.43 -5.49)"/></svg>