<?xml version="1.0" encoding="UTF-8"?>
<svg width="24px" height="24px" viewBox="0 0 24 24" version="1.1" xmlns="http://www.w3.org/2000/svg" xmlns:xlink="http://www.w3.org/1999/xlink">
    <!-- Generator: Sketch 57.1 (83088) - https://sketch.com -->
    <title>delete_2811937</title>
    <desc>Created with Sketch.</desc>
    <g id="Page-1" stroke="none" stroke-width="1" fill="none" fill-rule="evenodd">
        <g id="404_Desktop-HD-Copy-42" transform="translate(-1377.000000, -360.000000)" fill="#6BCCD1">
            <g id="delete_2811937" transform="translate(1377.000000, 360.000000)">
                <g id="Group">
                    <polygon id="Path" points="14.7086614 9.60629921 15.4330709 9.60629921 15.4330709 17.4488189 14.7086614 17.4488189"></polygon>
                    <polygon id="Path" points="11.6535433 9.60629921 12.3464567 9.60629921 12.3464567 17.4488189 11.6535433 17.4488189"></polygon>
                    <polygon id="Path" points="8.56692913 9.60629921 9.29133858 9.60629921 9.29133858 17.4488189 8.56692913 17.4488189"></polygon>
                    <path d="M12,0 C18.6141732,0 24,5.38582677 24,12 C24,18.6141732 18.6141732,24 12,24 C5.38582677,24 0,18.6141732 0,12 C0,5.38582677 5.38582677,0 12,0 Z M7.05511811,7.4015748 L16.9448819,7.4015748 L16.9448819,19.6220472 L7.05511811,19.6220472 L7.05511811,7.4015748 Z M9.95275591,4.37795276 L14.0472441,4.37795276 L14.0472441,5.29133858 L17.7322835,5.29133858 L17.7322835,6.8976378 L6.26771654,6.8976378 L6.26771654,5.29133858 L9.95275591,5.29133858 L9.95275591,4.37795276 Z" id="Shape"></path>
                </g>
            </g>
        </g>
    </g>
</svg>