<?xml version="1.0" encoding="UTF-8"?>
<svg width="24px" height="24px" viewBox="0 0 24 24" version="1.1" xmlns="http://www.w3.org/2000/svg" xmlns:xlink="http://www.w3.org/1999/xlink">
    <!-- Generator: Sketch 57.1 (83088) - https://sketch.com -->
    <title>edit_2812030</title>
    <desc>Created with Sketch.</desc>
    <g id="Page-1" stroke="none" stroke-width="1" fill="none" fill-rule="evenodd">
        <g id="404_Desktop-HD-Copy-42" transform="translate(-1337.000000, -360.000000)">
            <g id="edit_2812030" transform="translate(1337.000000, 360.000000)">
                <g id="Group">
                    <path d="M13.0765172,12.2216359 C12.9498681,12.348285 12.7282322,12.348285 12.6015831,12.2216359 C12.474934,12.0949868 12.474934,11.9050132 12.6015831,11.7783641 L16.4327177,7.94722955 C16.5593668,7.82058047 16.7493404,7.82058047 16.8759894,7.94722955 C17.0026385,8.07387863 17.0026385,8.26385224 16.8759894,8.39050132 L13.0765172,12.2216359 Z" id="Path" fill="#000000"></path>
                    <path d="M7.6939314,14.0897098 L8.73878628,15.1345646 L9.81530343,16.2110818 C9.87862797,16.1794195 9.94195251,16.116095 9.97361478,16.0844327 L9.97361478,16.0844327 L17.6042216,8.45382586 C17.8575198,8.2005277 17.9841689,7.85224274 17.9841689,7.50395778 C17.9841689,7.18733509 17.8575198,6.83905013 17.6042216,6.58575198 L17.3192612,6.30079156 C17.2875989,6.26912929 17.2559367,6.23746702 17.2242744,6.20580475 L13.5197889,9.91029024 C13.3931398,10.0369393 13.2031662,10.0369393 13.0765172,9.91029024 C12.9498681,9.78364116 12.9498681,9.56200528 13.0765172,9.4353562 L16.591029,5.92084433 C16.5277045,5.92084433 16.4643799,5.88918206 16.3693931,5.88918206 C16.0527704,5.88918206 15.7044855,6.01583113 15.4511873,6.30079156 L7.82058047,13.9313984 C7.75725594,13.9630607 7.72559367,14.0263852 7.6939314,14.0897098 Z" id="Path" fill="#6BCCD1"></path>
                    <path d="M12,0 C18.6490765,0 24,5.38258575 24,12 C24,18.6490765 18.6490765,24 12,24 C5.38258575,24 0,18.6490765 0,12 C0,5.38258575 5.38258575,0 12,0 Z M11.0817942,18.1108179 C11.2717678,18.1108179 11.4300792,18.2691293 11.4300792,18.4274406 C11.4300792,18.6174142 11.2717678,18.7440633 11.0817942,18.7440633 L5.69920844,18.7440633 C5.50923483,18.7440633 5.38258575,18.6174142 5.38258575,18.4274406 C5.38258575,18.2691293 5.50923483,18.1108179 5.69920844,18.1108179 L11.0817942,18.1108179 Z M17.762533,5.82585752 L18.0791557,6.14248021 C18.4591029,6.52242744 18.6490765,6.99736148 18.6490765,7.50395778 C18.6490765,8.01055409 18.4591029,8.5171504 18.0791557,8.89709763 L10.4485488,16.5277045 L10.4485488,16.5277045 C10.1002639,16.8759894 9.68865435,17.0343008 9.24538259,17.0976253 L8.07387863,17.4459103 L6.33245383,17.9841689 C6.17414248,18.0158311 5.98416887,17.9208443 5.92084433,17.762533 C5.92084433,17.6992084 5.92084433,17.6358839 5.92084433,17.5725594 L6.4591029,15.7994723 L6.80738786,14.6596306 C6.83905013,14.2163588 7.02902375,13.8047493 7.37730871,13.4564644 L15.0079156,5.82585752 C15.3878628,5.44591029 15.8944591,5.25593668 16.3693931,5.25593668 C16.8759894,5.25593668 17.3825858,5.44591029 17.762533,5.82585752 Z" id="Shape" fill="#6BCCD1"></path>
                </g>
            </g>
        </g>
    </g>
</svg>