<?xml version="1.0" encoding="utf-8"?>
<!-- Generator: Adobe Illustrator 25.2.3, SVG Export Plug-In . SVG Version: 6.00 Build 0)  -->
<svg version="1.1" id="Capa_1" xmlns="http://www.w3.org/2000/svg" xmlns:xlink="http://www.w3.org/1999/xlink" x="0px" y="0px"
	 viewBox="0 0 477.9 477.9" style="enable-background:new 0 0 477.9 477.9;" xml:space="preserve">
<style type="text/css">
	.st0{fill:#616161;}
</style>
<g>
	<g>
		<path class="st0" d="M385.5,238.9c-9,0-16.3,7.3-16.3,16.3v162.9c0,9-7.3,16.3-16.3,16.3H59.7c-9,0-16.3-7.3-16.3-16.3V92.3
			c0-9,7.3-16.3,16.3-16.3h195.5c9,0,16.3-7.3,16.3-16.3s-7.3-16.3-16.3-16.3H59.7c-27,0-48.9,21.9-48.9,48.9v325.8
			c0,27,21.9,48.9,48.9,48.9H353c27,0,48.9-21.9,48.9-48.9V255.2C401.8,246.2,394.5,238.9,385.5,238.9z"/>
	</g>
</g>
<g>
	<g>
		<path class="st0" d="M448.7,29.1c-11.7-11.7-27.6-18.3-44.1-18.3c-16.6,0-32.4,6.5-44.1,18.3L146,243.7c-1.8,1.8-3.1,4-3.9,6.4
			l-32.6,97.7c-2.8,8.5,1.8,17.8,10.3,20.6c1.7,0.6,3.4,0.8,5.1,0.8c1.7,0,3.5-0.3,5.1-0.8l97.7-32.6c2.4-0.8,4.6-2.2,6.4-3.9
			l214.6-214.6C473.1,93,473.1,53.5,448.7,29.1z M425.7,94.3L213.9,306.1l-63.3,21.1l21.1-63.2L383.6,52.3
			c11.6-11.6,30.5-11.6,42.1,0c5.6,5.6,8.7,13.1,8.7,21C434.4,81.2,431.3,88.7,425.7,94.3z"/>
	</g>
</g>
</svg>
