<svg width="17" height="15" viewBox="0 0 17 15" fill="none" xmlns="http://www.w3.org/2000/svg">
<path fill-rule="evenodd" clip-rule="evenodd" d="M0.0696717 0.434342C0.192565 0.169469 0.458016 0 0.75001 0H15.75C16.042 0 16.3075 0.169469 16.4303 0.434342C16.5532 0.699215 16.5112 1.01134 16.3227 1.23429L10.5 8.11961V14.25C10.5 14.5099 10.3654 14.7513 10.1443 14.888C9.92319 15.0246 9.64709 15.0371 9.4146 14.9208L6.4146 13.4208C6.16051 13.2938 6.00001 13.0341 6.00001 12.75V8.11961L0.177333 1.23429C-0.0112156 1.01134 -0.053222 0.699215 0.0696717 0.434342ZM2.36649 1.5L7.32269 7.36071C7.43718 7.4961 7.50001 7.66768 7.50001 7.845V12.2865L9.00001 13.0365V7.845C9.00001 7.66768 9.06283 7.4961 9.17733 7.36071L14.1335 1.5H2.36649Z" fill="black"/>
</svg>
