<?xml version="1.0" encoding="UTF-8"?>
<svg width="16px" height="15px" viewBox="0 0 16 15" version="1.1" xmlns="http://www.w3.org/2000/svg" xmlns:xlink="http://www.w3.org/1999/xlink">
    <!-- Generator: Sketch 57.1 (83088) - https://sketch.com -->
    <title>filter_list</title>
    <desc>Created with Sketch.</desc>
    <g id="Page-1" stroke="none" stroke-width="1" fill="none" fill-rule="evenodd">
        <g id="404_Desktop-HD-Copy-42" transform="translate(-246.000000, -316.000000)" fill-rule="nonzero">
            <g id="filter_list" transform="translate(246.000000, 316.000000)">
                <g id="Group">
                    <g>
                        <path d="M0,5.99631118 C0,5.77743456 0.17260208,5.6 0.396311184,5.6 L2.00368882,5.6 C2.22256544,5.6 2.4,5.77260208 2.4,5.99631118 L2.4,7.6036888 C2.4,7.82256544 2.22739792,8 2.00368882,8 L0.396311184,8 C0.17743456,8 0,7.82739792 0,7.6036888 L0,5.99631118 Z M0.8,6.4 L1.6,6.4 L1.6,7.2 L0.8,7.2 L0.8,6.4 Z" id="Shape" fill="#303D42"></path>
                        <path d="M0,9.1963112 C0,8.97743456 0.17260208,8.8 0.396311184,8.8 L2.00368882,8.8 C2.22256544,8.8 2.4,8.97260208 2.4,9.1963112 L2.4,10.8036888 C2.4,11.0225654 2.22739792,11.2 2.00368882,11.2 L0.396311184,11.2 C0.17743456,11.2 0,11.0273979 0,10.8036888 L0,9.1963112 Z M0.8,9.6 L1.6,9.6 L1.6,10.4 L0.8,10.4 L0.8,9.6 Z" id="Shape" fill="#303D42"></path>
                        <path d="M0,12.3963112 C0,12.1774346 0.17260208,12 0.396311184,12 L2.00368882,12 C2.22256544,12 2.4,12.1726021 2.4,12.3963112 L2.4,14.0036888 C2.4,14.2225654 2.22739792,14.4 2.00368882,14.4 L0.396311184,14.4 C0.17743456,14.4 0,14.2273979 0,14.0036888 L0,12.3963112 Z M0.8,12.8 L1.6,12.8 L1.6,13.6 L0.8,13.6 L0.8,12.8 Z" id="Shape" fill="#303D42"></path>
                        <polygon id="Path" fill="#000000" points="13.6164922 2 14.424 2.86611328 12.8 2.86611328"></polygon>
                        <rect id="Rectangle" fill="#303D42" x="3.2" y="6.4" width="8" height="1"></rect>
                        <rect id="Rectangle" fill="#303D42" x="3.2" y="9.6" width="8" height="1"></rect>
                        <rect id="Rectangle" fill="#303D42" x="3.2" y="12.8" width="8" height="1"></rect>
                        <path d="M0.5,0.792622376 L0.5,4.00737762 C0.5,4.16557728 0.633872198,4.3 0.793442488,4.3 L15.2065575,4.3 C15.3637095,4.3 15.5,4.16490982 15.5,4.00737762 L15.5,0.792622376 C15.5,0.634422731 15.3661278,0.5 15.2065575,0.5 L0.793442488,0.5 C0.636290451,0.5 0.5,0.635090176 0.5,0.792622376 Z M0.3,0.3 L11.7,0.3 L11.7,4.5 L0.3,4.5 L0.3,0.3 Z M11.5,0.3 L15.7,0.3 L15.7,4.5 L11.5,4.5 L11.5,0.3 Z" id="Shape" stroke="#303D42"></path>
                    </g>
                </g>
            </g>
        </g>
    </g>
</svg>