<?xml version="1.0" encoding="UTF-8"?>
<svg width="24px" height="24px" viewBox="0 0 24 24" version="1.1" xmlns="http://www.w3.org/2000/svg" xmlns:xlink="http://www.w3.org/1999/xlink">
    <!-- Generator: Sketch 57.1 (83088) - https://sketch.com -->
    <title>help_ico</title>
    <desc>Created with Sketch.</desc>
    <g id="Page-1" stroke="none" stroke-width="1" fill="none" fill-rule="evenodd">
        <g id="400_Desktop-HD-Copy-40" transform="translate(-1347.000000, -19.000000)" fill="#2F3C41" fill-rule="nonzero">
            <g id="help_ico" transform="translate(1347.000000, 19.000000)">
                <path d="M12,24 C5.372583,24 1.77635684e-15,18.627417 1.77635684e-15,12 C1.77635684e-15,5.372583 5.372583,1.77635684e-15 12,1.77635684e-15 C18.627417,1.77635684e-15 24,5.372583 24,12 C24,18.627417 18.627417,24 12,24 Z M12,21.6 C17.3019336,21.6 21.6,17.3019336 21.6,12 C21.6,6.6980664 17.3019336,2.4 12,2.4 C6.6980664,2.4 2.4,6.6980664 2.4,12 C2.4,17.3019336 6.6980664,21.6 12,21.6 Z M10.308,7.908 C10.0036097,8.2123903 9.55995121,8.33126826 9.14414634,8.21985368 C8.72834147,8.10843911 8.40356089,7.78365853 8.29214632,7.36785366 C8.18073174,6.95204879 8.2996097,6.50839028 8.604,6.204 C10.479559,4.32844099 13.520441,4.32844099 15.396,6.204 C17.271559,8.07955901 17.271559,11.120441 15.396,12.996 L12.852,15.54 C12.5476097,15.8443903 12.1039512,15.9632682 11.6881463,15.8518537 C11.2723415,15.7404391 10.9475609,15.4156585 10.8361463,14.9998537 C10.7247318,14.5840488 10.8436097,14.1403903 11.148,13.836 L13.692,11.292 C14.450527,10.3369031 14.3720858,8.96477552 13.5096551,8.10234486 C12.6472245,7.23991421 11.2750969,7.161473 10.32,7.92 L10.308,7.908 Z M12,19.2 C11.3372583,19.2 10.8,18.6627417 10.8,18 C10.8,17.3372583 11.3372583,16.8 12,16.8 C12.6627417,16.8 13.2,17.3372583 13.2,18 C13.2,18.6627417 12.6627417,19.2 12,19.2 Z" id="Shape"></path>
            </g>
        </g>
    </g>
</svg>