<?xml version="1.0" encoding="UTF-8"?>
<svg width="22px" height="19px" viewBox="0 0 22 19" version="1.1" xmlns="http://www.w3.org/2000/svg" xmlns:xlink="http://www.w3.org/1999/xlink">
    <!-- Generator: Sketch 57.1 (83088) - https://sketch.com -->
    <title>home_ico</title>
    <desc>Created with Sketch.</desc>
    <g id="Page-1" stroke="none" stroke-width="1" fill="none" fill-rule="evenodd">
        <g id="400_Desktop-HD-Copy-40" transform="translate(-14.000000, -129.000000)" fill="#FFFFFF" fill-rule="nonzero">
            <g id="Group-2">
                <g id="home_ico" transform="translate(14.000000, 129.000000)">
                    <path d="M21.2666667,8.76923077 C21.1138335,8.7682471 20.9651276,8.71970345 20.8413333,8.63038462 L11,1.62961538 L1.15866667,8.63038462 C0.831369117,8.82355045 0.410189261,8.73526066 0.188729133,8.42706153 C-0.0327309957,8.11886241 0.0190604701,7.69308595 0.308,7.44653846 L10.5746667,0.138846154 C10.8292538,-0.0417839482 11.1707462,-0.0417839482 11.4253333,0.138846154 L21.692,7.44653846 C21.9488294,7.63181597 22.0570818,7.96059007 21.9603269,8.26147623 C21.863572,8.5623624 21.5837255,8.76720815 21.2666667,8.76923077 Z" id="Path"></path>
                    <path d="M2.93333333,4.38461538 C2.52832452,4.38461538 2.2,4.05743886 2.2,3.65384615 L2.2,0.730769231 C2.2,0.327176529 2.52832452,0 2.93333333,0 L5.86666667,0 C6.27167548,0 6.6,0.327176529 6.6,0.730769231 C6.6,1.13436193 6.27167548,1.46153846 5.86666667,1.46153846 L3.66666667,1.46153846 L3.66666667,3.65384615 C3.66666667,4.05743886 3.33834215,4.38461538 2.93333333,4.38461538 Z" id="Path"></path>
                    <path d="M17.6,19 L13.9333333,19 C13.5283245,19 13.2,18.6728235 13.2,18.2692308 L13.2,13.1538462 L8.8,13.1538462 L8.8,18.2692308 C8.8,18.6728235 8.47167548,19 8.06666667,19 L4.4,19 C3.18497355,19 2.2,18.0184704 2.2,16.8076923 L2.2,9.5 C2.2,9.0964073 2.52832452,8.76923077 2.93333333,8.76923077 C3.33834215,8.76923077 3.66666667,9.0964073 3.66666667,9.5 L3.66666667,16.8076923 C3.66666667,17.211285 3.99499118,17.5384615 4.4,17.5384615 L7.33333333,17.5384615 L7.33333333,12.4230769 C7.33333333,12.0194842 7.66165785,11.6923077 8.06666667,11.6923077 L13.9333333,11.6923077 C14.3383421,11.6923077 14.6666667,12.0194842 14.6666667,12.4230769 L14.6666667,17.5384615 L17.6,17.5384615 C18.0050088,17.5384615 18.3333333,17.211285 18.3333333,16.8076923 L18.3333333,9.5 C18.3333333,9.0964073 18.6616579,8.76923077 19.0666667,8.76923077 C19.4716755,8.76923077 19.8,9.0964073 19.8,9.5 L19.8,16.8076923 C19.8,18.0184704 18.8150264,19 17.6,19 Z" id="Path"></path>
                </g>
            </g>
        </g>
    </g>
</svg>