<?xml version="1.0" encoding="UTF-8"?>
<svg width="22px" height="24px" viewBox="0 0 22 24" version="1.1" xmlns="http://www.w3.org/2000/svg" xmlns:xlink="http://www.w3.org/1999/xlink">
    <!-- Generator: Sketch 57.1 (83088) - https://sketch.com -->
    <title>notification_ico</title>
    <desc>Created with Sketch.</desc>
    <g id="Page-1" stroke="none" stroke-width="1" fill="none" fill-rule="evenodd">
        <g id="400_Desktop-HD-Copy-40" transform="translate(-1301.000000, -19.000000)" fill="#303D42" fill-rule="nonzero">
            <g id="notification_ico" transform="translate(1301.000000, 19.000000)">
                <path d="M21.879,20.13 L19.4615385,16.0482857 L19.4615385,10.2857143 C19.4615385,5.84828571 16.1158462,2.18914286 11.8461538,1.758 L11.8461538,0.857142857 C11.8461538,0.384 11.4670769,0 11,0 C10.5329231,0 10.1538462,0.384 10.1538462,0.857142857 L10.1538462,2.57142857 C10.1538462,3.04457143 10.5329231,3.42857143 11,3.42857143 C14.7323846,3.42857143 17.7692308,6.50485714 17.7692308,10.2857143 L17.7692308,16.2857143 C17.7692308,16.4417143 17.8106923,16.5934286 17.8902308,16.7271429 L19.6586923,19.7142857 L2.34046154,19.7142857 L4.10976923,16.7271429 C4.18930769,16.5934286 4.23076923,16.4417143 4.23076923,16.2857143 L4.23076923,10.2857143 C4.23076923,7.64657143 5.75384615,5.21142857 8.11038462,4.08171429 C8.53261538,3.87942857 8.71284615,3.36857143 8.51315385,2.94 C8.31346154,2.51228571 7.80915385,2.32971429 7.38607692,2.532 C4.44146154,3.94371429 2.53846154,6.98657143 2.53846154,10.2857143 L2.53846154,16.0482857 L0.121,20.1308571 C-0.0363846154,20.3957143 -0.0397692308,20.7248571 0.11,20.9948571 C0.259769231,21.2631429 0.541538462,21.4285714 0.846153846,21.4285714 L7.73553846,21.4285714 C8.11376923,22.9037143 9.42784615,24 11,24 C12.573,24 13.8862308,22.9037143 14.2644615,21.4285714 L21.1538462,21.4285714 C21.4584615,21.4285714 21.7393846,21.2631429 21.89,20.994 C22.0406154,20.7248571 22.0363846,20.3948571 21.879,20.13 Z M11,22.2857143 C10.3763846,22.2857143 9.83653846,21.9385714 9.54292308,21.4285714 L12.4562308,21.4285714 C12.1634615,21.9385714 11.6236154,22.2857143 11,22.2857143 Z" id="Shape"></path>
            </g>
        </g>
    </g>
</svg>