<?xml version="1.0" encoding="utf-8"?>
<!-- Generator: Adobe Illustrator 25.2.1, SVG Export Plug-In . SVG Version: 6.00 Build 0)  -->
<svg version="1.1" id="Layer_1" xmlns="http://www.w3.org/2000/svg" xmlns:xlink="http://www.w3.org/1999/xlink" x="0px" y="0px"
	 viewBox="0 0 512 512" style="enable-background:new 0 0 512 512;" xml:space="preserve">
<style type="text/css">
	.st0{fill:none;stroke:#FFFFFF;stroke-width:15;stroke-miterlimit:10;}
	.st1{fill:none;stroke:#FFFFFF;stroke-width:11;stroke-miterlimit:10;}
	.st2{fill:#FFFFFF;}
</style>
<path class="st0" d="M492.8,480.8H19.4c-4.5,0-8.2-3.7-8.2-8.2V105.3c0-4.5,3.7-8.2,8.2-8.2h473.4c4.5,0,8.2,3.7,8.2,8.2v367.3
	C501,477.2,497.3,480.8,492.8,480.8z"/>
<circle class="st0" cx="55.9" cy="138.4" r="21.8"/>
<polygon class="st1" points="407.5,380.1 273.2,380.1 246,310.6 434.7,310.6 "/>
<polygon class="st1" points="423.5,310.6 255,310.6 281.9,223.4 397.9,223.4 "/>
<path class="st2" d="M431.5,166.6H236.3c-1.7,0-3.2-1.4-3.2-3.2V32.3c0-1.7,1.4-3.2,3.2-3.2h195.2c1.7,0,3.2,1.4,3.2,3.2v131.2
	C434.7,165.2,433.2,166.6,431.5,166.6z"/>
</svg>
