<svg width="30" height="30" viewBox="0 0 30 30" fill="none" xmlns="http://www.w3.org/2000/svg">
<path d="M23.5 22C22.673 22 21.9999 22.673 21.9999 23.5C21.9999 24.327 22.673 25 23.5 25C24.327 25 25 24.327 25 23.5C25 22.673 24.327 22 23.5 22Z" fill="#9B9B9B"/>
<path d="M29.594 22.432L28.872 22.2931C28.5335 22.2281 28.267 22.0065 28.141 21.6856C28.0145 21.3646 28.0595 21.0206 28.2635 20.7425L28.7175 20.1245C28.8635 19.925 28.8425 19.6491 28.6675 19.4746L27.688 18.4956C27.5185 18.327 27.2525 18.3011 27.0535 18.4356L26.446 18.8475C26.1595 19.042 25.814 19.0731 25.4985 18.935C25.1825 18.797 24.9709 18.5225 24.9184 18.1815L24.8019 17.424C24.764 17.18 24.554 17 24.3075 17H22.9229C22.6829 17 22.4769 17.17 22.4315 17.4055L22.2525 18.3381C22.1889 18.6696 21.9734 18.9336 21.6619 19.0626C21.3499 19.1921 21.011 19.1576 20.7319 18.9681L19.9459 18.4356C19.7484 18.3016 19.4815 18.327 19.312 18.4956L18.3324 19.4746C18.1574 19.6491 18.1364 19.9251 18.2825 20.1245L18.7364 20.7421C18.9405 21.0206 18.9855 21.3646 18.859 21.6856C18.733 22.0065 18.4664 22.2281 18.1279 22.2931L17.4059 22.432C17.1699 22.4776 16.9999 22.6835 16.9999 22.9231V24.3076C16.9999 24.5546 17.1799 24.7641 17.4239 24.8021L18.1809 24.9186C18.5224 24.9711 18.7974 25.1826 18.9349 25.4986C19.0729 25.8146 19.0414 26.1601 18.8474 26.4461L18.4354 27.0546C18.3014 27.2531 18.3265 27.5191 18.496 27.6881L19.475 28.6671C19.6495 28.8426 19.926 28.8626 20.124 28.7171L20.7425 28.2636C21.0205 28.0601 21.3645 28.0156 21.685 28.1411C22.0065 28.267 22.228 28.5336 22.293 28.8726L22.4315 29.5941C22.477 29.8301 22.683 30.0001 22.923 30.0001H24.3075C24.554 30.0001 24.764 29.8201 24.802 29.5761L24.884 29.0431C24.9365 28.7001 25.1595 28.4156 25.481 28.2826C25.802 28.1492 26.1605 28.1932 26.441 28.3981L26.8755 28.7171C27.074 28.8626 27.35 28.8426 27.525 28.6671L28.504 27.6881C28.6735 27.5191 28.6985 27.2531 28.5645 27.0546L28.1525 26.4461C27.9585 26.1601 27.927 25.8146 28.0651 25.4986C28.2026 25.1826 28.4776 24.9711 28.8191 24.9186L29.576 24.8021C29.82 24.7641 30 24.5546 30 24.3076V22.9231C30 22.6835 29.83 22.4775 29.594 22.432ZM23.5 26.0001C22.1215 26.0001 20.9999 24.8786 20.9999 23.5C20.9999 22.1216 22.1214 21 23.5 21C24.8785 21 26 22.1215 26 23.5C26 24.8785 24.8785 26.0001 23.5 26.0001Z" fill="#9B9B9B"/>
<path d="M17.1571 19.5162L16.1886 18.9877C15.7636 18.7562 15.5001 18.3117 15.5001 17.8277V16.1737C15.8346 15.7352 16.7931 14.3681 17.2512 12.5547C17.7237 12.1757 18.0002 11.6086 18.0002 11.0001V9.00009C18.0002 8.51856 17.8202 8.05156 17.5002 7.68758V5.02757C17.5282 4.75305 17.6377 3.11558 16.4542 1.76504C15.4266 0.593502 13.7601 0 11.5001 0C9.23956 0 7.57302 0.593502 6.54551 1.76504C5.36203 3.11558 5.47148 4.75305 5.50001 5.02757V7.68758C5.1795 8.05156 5.00003 8.51856 5.00003 9.00009V11.0001C5.00003 11.6086 5.27601 12.1756 5.74851 12.5546C6.20655 14.3681 7.16503 15.7352 7.50002 16.1736V17.8276C7.50002 18.3116 7.23599 18.7561 6.81153 18.9876L2.35051 21.4211C0.900009 22.2122 0 23.7292 0 25.3807V27.5003C0 27.7762 0.223479 28.0002 0.499985 28.0002H17.5141C16.5681 26.7447 16.0001 25.1897 16.0001 23.5002C16.0001 22.0357 16.4281 20.6722 17.1571 19.5162Z" fill="#9B9B9B"/>
</svg>
