<?xml version="1.0" encoding="UTF-8"?>
<svg width="24px" height="24px" viewBox="0 0 24 24" version="1.1" xmlns="http://www.w3.org/2000/svg" xmlns:xlink="http://www.w3.org/1999/xlink">
    <!-- Generator: Sketch 57.1 (83088) - https://sketch.com -->
    <title>rights</title>
    <desc>Created with Sketch.</desc>
    <g id="design-final" stroke="none" stroke-width="1" fill="none" fill-rule="evenodd">
        <g id="404_Desktop-HD-Copy-46" transform="translate(-1261.000000, -699.000000)" fill="#6BCCD1" fill-rule="nonzero">
            <g id="Structure" transform="translate(74.000000, 198.000000)">
                <path d="M1199,501 C1192.3833,501 1187,506.383304 1187,513 C1187,519.616696 1192.3833,525 1199,525 C1205.6167,525 1211,519.616696 1211,513 C1211,506.383304 1205.6167,501 1199,501 Z M1203.17391,515.608696 L1194.82609,515.608696 C1194.53809,515.608696 1194.30435,515.374957 1194.30435,515.086957 C1194.30435,514.798957 1194.53809,514.565217 1194.82609,514.565217 L1203.17391,514.565217 C1203.46191,514.565217 1203.69565,514.798957 1203.69565,515.086957 C1203.69565,515.374957 1203.46191,515.608696 1203.17391,515.608696 Z M1203.17391,511.434783 L1194.82609,511.434783 C1194.53809,511.434783 1194.30435,511.201043 1194.30435,510.913043 C1194.30435,510.625043 1194.53809,510.391304 1194.82609,510.391304 L1203.17391,510.391304 C1203.46191,510.391304 1203.69565,510.625043 1203.69565,510.913043 C1203.69565,511.201043 1203.46191,511.434783 1203.17391,511.434783 Z" id="rights"></path>
            </g>
        </g>
    </g>
</svg>