<?xml version="1.0" encoding="UTF-8"?>
<svg width="16px" height="16px" viewBox="0 0 16 16" version="1.1" xmlns="http://www.w3.org/2000/svg" xmlns:xlink="http://www.w3.org/1999/xlink">
    <!-- Generator: Sketch 57.1 (83088) - https://sketch.com -->
    <title>search_ico</title>
    <desc>Created with Sketch.</desc>
    <g id="Page-1" stroke="none" stroke-width="1" fill="none" fill-rule="evenodd">
        <g id="403_Desktop-HD-Copy-40" transform="translate(-1382.000000, -195.000000)" fill="#303D42" fill-rule="nonzero">
            <g id="search_ico" transform="translate(1382.000000, 195.000000)">
                <path d="M12.6958122,11.2203478 C14.8498903,8.29456561 14.3853077,4.20306983 11.6300909,1.8347299 C8.87487399,-0.533610039 4.7600075,-0.378534703 2.19086207,2.19046236 C-0.378283348,4.75945942 -0.533596317,8.87431695 1.8345845,11.6296706 C4.20276532,14.3850242 8.29423426,14.8498431 11.2201409,12.6959339 L14.0448261,15.5204765 C14.3083301,15.7845902 14.6927989,15.8879179 15.0532022,15.7914822 C15.4136055,15.6950465 15.6950969,15.4135229 15.7914914,15.0531086 C15.8878859,14.6926943 15.7845142,14.3082373 15.5203704,14.0447635 L12.6958122,11.2203478 Z M7.11106261,11.9612174 C4.43239406,11.9612174 2.26094261,9.7896871 2.26094261,7.11101855 C2.26094261,4.43235 4.43246826,2.26089391 7.11113681,2.26089391 C9.78980536,2.26089391 11.9612661,4.43241493 11.9612661,7.11108348 C11.9582097,9.78849634 9.78847552,11.9581931 7.11106261,11.9612174 L7.11106261,11.9612174 Z" id="Shape"></path>
            </g>
        </g>
    </g>
</svg>