<svg width="21" height="25" viewBox="0 0 21 25" fill="none" xmlns="http://www.w3.org/2000/svg">
<path d="M8.69043 12.1792H19.9997" stroke="white" stroke-width="2" stroke-linecap="round" stroke-linejoin="round"/>
<path d="M15.659 20.0087V22.6185H1.73989V1.73989H15.659V4.34972H17.3989V0.869943C17.3989 0.63922 17.3072 0.417947 17.1441 0.254801C16.9809 0.0916545 16.7596 0 16.5289 0H0.869943C0.63922 0 0.417947 0.0916545 0.254801 0.254801C0.0916547 0.417947 0 0.63922 0 0.869943V23.4885C0 23.7192 0.0916547 23.9405 0.254801 24.1036C0.417947 24.2668 0.63922 24.3584 0.869943 24.3584H16.5289C16.7596 24.3584 16.9809 24.2668 17.1441 24.1036C17.3072 23.9405 17.3989 23.7192 17.3989 23.4885V20.0087H15.659Z" fill="white"/>
<path d="M20.0003 12.1792L16.5205 15.659" stroke="white" stroke-width="2" stroke-linecap="round" stroke-linejoin="round"/>
<path d="M20.0003 12.1792L16.5205 8.69946" stroke="white" stroke-width="2" stroke-linecap="round" stroke-linejoin="round"/>
<path d="M16.5205 5.29799V3.55811" stroke="white" stroke-width="2" stroke-linecap="round" stroke-linejoin="round"/>
<path d="M16.5205 20.8786V19.1387" stroke="white" stroke-width="2" stroke-linecap="round" stroke-linejoin="round"/>
</svg>
