<svg width="20" height="20" viewBox="0 0 20 20" fill="none" xmlns="http://www.w3.org/2000/svg">
<path d="M10 14C9.82319 14 9.65362 13.9298 9.5286 13.8047C9.40357 13.6797 9.33333 13.5101 9.33333 13.3333V13.1933C9.34425 12.6022 9.52219 12.0262 9.84661 11.5319C10.171 11.0376 10.6287 10.6452 11.1667 10.4C11.7102 10.1367 12.1484 9.69674 12.4093 9.15204C12.6702 8.60734 12.7385 7.99019 12.603 7.40162C12.4674 6.81305 12.1361 6.28792 11.6633 5.91218C11.1904 5.53644 10.604 5.33236 10 5.33333V5.33333C9.29276 5.33333 8.61448 5.61428 8.11438 6.11438C7.61428 6.61448 7.33333 7.29276 7.33333 8C7.33333 8.17681 7.2631 8.34638 7.13807 8.4714C7.01305 8.59643 6.84348 8.66667 6.66667 8.66667C6.48986 8.66667 6.32029 8.59643 6.19526 8.4714C6.07024 8.34638 6 8.17681 6 8C6 6.93913 6.42143 5.92172 7.17157 5.17157C7.92172 4.42143 8.93913 4 10 4V4C11.0566 4.01381 12.066 4.43968 12.8132 5.18685C13.5603 5.93402 13.9862 6.94343 14 8C13.9996 8.74925 13.7888 9.48334 13.3916 10.1186C12.9944 10.7539 12.4268 11.2649 11.7533 11.5933C11.4401 11.7309 11.1721 11.954 10.9799 12.237C10.7877 12.52 10.6791 12.8515 10.6667 13.1933V13.3333C10.6667 13.5101 10.5964 13.6797 10.4714 13.8047C10.3464 13.9298 10.1768 14 10 14Z" fill="white"/>
<path d="M9.99967 16.6671C10.3679 16.6671 10.6663 16.3686 10.6663 16.0004C10.6663 15.6322 10.3679 15.3337 9.99967 15.3337C9.63148 15.3337 9.33301 15.6322 9.33301 16.0004C9.33301 16.3686 9.63148 16.6671 9.99967 16.6671Z" fill="white"/>
<circle cx="10" cy="10" r="9.5" stroke="white"/>
</svg>
