<svg width="20" height="20" viewBox="0 0 20 20" fill="none" xmlns="http://www.w3.org/2000/svg">
<path d="M18.9944 7.92375L17.0794 7.54C16.9831 7.26312 16.8694 6.99438 16.7438 6.73438L17.8287 5.10688C18.1594 4.61125 18.0937 3.95063 17.6725 3.53L16.47 2.3275C16.2281 2.08562 15.9088 1.96125 15.585 1.96125C15.3456 1.96125 15.1038 2.03 14.8931 2.17125L13.2656 3.25563C13.0044 3.12938 12.7356 3.01688 12.4587 2.92063L12.075 1.005C11.9587 0.42 11.445 0 10.8494 0H9.14937C8.55375 0 8.04063 0.420625 7.92375 1.005L7.54 2.92063C7.26312 3.01688 6.99437 3.13 6.73438 3.25563L5.1075 2.17125C4.89563 2.03 4.65438 1.96125 4.41438 1.96125C4.09125 1.96125 3.77187 2.08562 3.53 2.3275L2.32812 3.53C1.90687 3.95125 1.84125 4.61125 2.17188 5.10688L3.25625 6.73438C3.13 6.995 3.0175 7.26375 2.92125 7.54063L1.005 7.92375C0.420625 8.04063 0 8.55375 0 9.14937V10.8494C0 11.445 0.420625 11.9587 1.005 12.075L2.92062 12.4594C3.01687 12.7362 3.13 13.005 3.25563 13.265L2.17188 14.8925C1.84125 15.3881 1.90687 16.0488 2.32812 16.4694L3.53063 17.6719C3.7725 17.9137 4.09187 18.0381 4.415 18.0381C4.655 18.0381 4.89688 17.9688 5.1075 17.8281L6.735 16.7431C6.99563 16.87 7.26438 16.9825 7.54125 17.0787L7.92438 18.9937C8.04125 19.5787 8.55438 19.9994 9.15 19.9994H10.85C11.4456 19.9994 11.9594 19.5781 12.0756 18.9937L12.46 17.0787C12.7369 16.9825 13.0056 16.8687 13.2656 16.7431L14.8931 17.8281C15.1044 17.9688 15.3463 18.0381 15.585 18.0381C15.9088 18.0381 16.2281 17.9137 16.47 17.6719L17.6725 16.4694C18.0937 16.0481 18.1594 15.3881 17.8287 14.8925L16.7438 13.265C16.8706 13.0037 16.9831 12.735 17.0794 12.4581L18.9944 12.075C19.5788 11.9594 20 11.445 20 10.8494V9.14937C20 8.55375 19.5788 8.04063 18.9944 7.92375ZM16.8337 11.2331C16.3994 11.32 16.0438 11.63 15.8988 12.0487C15.8181 12.2794 15.7244 12.5031 15.6194 12.72C15.425 13.1194 15.4581 13.5906 15.7037 13.9587L16.7887 15.5863L15.5863 16.7887L13.9587 15.7037C13.75 15.5644 13.5081 15.4937 13.2656 15.4937C13.08 15.4937 12.8931 15.535 12.7213 15.6181C12.5038 15.7231 12.2806 15.8181 12.0487 15.8988C11.6312 16.0438 11.3212 16.3994 11.2344 16.8337L10.85 18.75H9.15L8.76688 16.8337C8.68 16.3994 8.37 16.0438 7.95187 15.8988C7.72125 15.8181 7.49687 15.7244 7.28 15.6194C7.1075 15.535 6.92125 15.4937 6.735 15.4937C6.49188 15.4937 6.25062 15.5644 6.04187 15.7037L4.41438 16.7887L3.21187 15.5863L4.29625 13.9587C4.54187 13.59 4.57375 13.1188 4.38188 12.7213C4.27688 12.5038 4.1825 12.2806 4.10188 12.0487C3.95688 11.6312 3.60062 11.3212 3.16687 11.2344L1.25125 10.85L1.25 9.14937L3.16625 8.76625C3.6 8.67937 3.95625 8.36938 4.10125 7.95125C4.18187 7.72063 4.275 7.49625 4.38062 7.27938C4.57437 6.88063 4.54188 6.40938 4.29563 6.04125L3.21187 4.41375L4.41375 3.21125L6.04125 4.29563C6.25 4.435 6.49187 4.50563 6.73438 4.50563C6.92 4.50563 7.10625 4.46438 7.27875 4.38125C7.49562 4.27625 7.71937 4.18188 7.95062 4.10125C8.36875 3.95625 8.67875 3.6 8.76562 3.16625L9.14937 1.25062L10.8494 1.25L11.2325 3.16625C11.3194 3.6 11.6294 3.95625 12.0481 4.10125C12.2788 4.18188 12.5025 4.275 12.7194 4.38063C12.8925 4.46438 13.0781 4.50563 13.265 4.50563C13.5081 4.50563 13.7494 4.435 13.9581 4.29563L15.5856 3.21125L16.7881 4.41375L15.7031 6.04125C15.4575 6.41 15.4263 6.88062 15.6175 7.27875C15.7225 7.49562 15.8175 7.71937 15.8981 7.95062C16.0431 8.36875 16.3988 8.67875 16.8331 8.76562L18.7481 9.14937L18.75 10.8494L16.8337 11.2331Z" fill="white"/>
<path d="M10 5.62451C7.58437 5.62451 5.625 7.58389 5.625 9.99951C5.625 12.4158 7.58437 14.3745 10 14.3745C12.4156 14.3745 14.375 12.4151 14.375 9.99951C14.375 7.58389 12.4156 5.62451 10 5.62451ZM10 13.8283C7.88625 13.8283 6.17188 12.1133 6.17188 10.0001C6.17188 7.88639 7.88625 6.17201 10 6.17201C12.1131 6.17201 13.8281 7.88639 13.8281 10.0001C13.8281 12.1133 12.1131 13.8283 10 13.8283Z" fill="white"/>
<path d="M10 7.49951C8.61875 7.49951 7.5 8.61826 7.5 9.99951C7.5 11.3801 8.61875 12.4995 10 12.4995C11.3806 12.4995 12.5 11.3801 12.5 9.99951C12.5 8.61889 11.3806 7.49951 10 7.49951ZM10 11.8751C8.965 11.8751 8.125 11.0351 8.125 10.0001C8.125 8.96514 8.965 8.12514 10 8.12514C11.035 8.12514 11.875 8.96514 11.875 10.0001C11.875 11.0351 11.035 11.8751 10 11.8751Z" fill="white"/>
</svg>
