<svg width="22" height="22" viewBox="0 0 22 22" fill="none" xmlns="http://www.w3.org/2000/svg">
<path d="M6 5C6 4.44772 5.55228 4 5 4C4.44772 4 4 4.44772 4 5C4 5.55228 4.44772 6 5 6C5.55228 6 6 5.55228 6 5Z" stroke="white" stroke-width="0.6" stroke-miterlimit="10" stroke-linecap="round"/>
<path d="M2.13636 1C1.50863 1 0.999999 1.50863 0.999999 2.13636C0.999999 2.20727 1.00091 8.89814 1.00091 8.89814C1.00091 9.50268 0.969091 10.0813 1.30454 10.4168L11.6354 20.7481C11.9708 21.084 12.5154 21.084 12.8508 20.7481L20.7481 12.8508C21.0835 12.5154 21.0835 11.9708 20.7481 11.6354L10.4168 1.30454C10.0818 0.96909 9.51677 1.00091 8.89859 1.00091C8.89859 1.00091 2.20726 1 2.13636 1Z" stroke="white" stroke-miterlimit="10" stroke-linecap="round"/>
</svg>
