<?xml version="1.0" ?><svg height="512" id="svg2" version="1.1" width="512" xmlns="http://www.w3.org/2000/svg" xmlns:cc="http://creativecommons.org/ns#" xmlns:dc="http://purl.org/dc/elements/1.1/" xmlns:inkscape="http://www.inkscape.org/namespaces/inkscape" xmlns:rdf="http://www.w3.org/1999/02/22-rdf-syntax-ns#" xmlns:sodipodi="http://sodipodi.sourceforge.net/DTD/sodipodi-0.dtd" xmlns:svg="http://www.w3.org/2000/svg"><defs id="defs4"/><g id="layer1" transform="translate(0,-540.36218)"><g id="g4305"><g id="g4345" transform="translate(28,-40.00001)"><path d="M 138.125 27.5625 C 126.72356 27.56272 116.41668 29.94979 107.21875 34.75 C 98.020707 39.55061 90.132165 46.5804 83.53125 55.78125 C 76.930274 64.98248 71.875347 76.25615 68.375 89.65625 C 64.874622 103.05666 63.124989 118.474 63.125 135.875 C 63.124989 170.87263 69.794173 197.70512 83.09375 216.40625 C 96.393268 235.10743 114.72406 244.46875 138.125 244.46875 C 161.52577 244.46875 179.88782 235.10743 193.1875 216.40625 C 206.48691 197.70512 213.12484 170.87263 213.125 135.875 C 213.12484 101.07289 206.48691 74.32634 193.1875 55.625 C 179.88782 36.92403 161.52577 27.56272 138.125 27.5625 z M 138.125 65.96875 C 143.72794 65.96893 148.45047 67.66302 152.25 71.0625 C 156.04934 74.46233 159.04957 79.26774 161.25 85.46875 C 163.4502 91.67007 165.03321 99.03225 166.03125 107.53125 C 167.02906 116.03052 167.53113 125.47472 167.53125 135.875 C 167.53113 146.27548 167.02906 155.77523 166.03125 164.375 C 165.03321 172.97492 163.4502 180.36444 161.25 186.5625 C 159.04957 192.76067 156.04934 197.56914 152.25 200.96875 C 148.45047 204.36845 143.72794 206.06253 138.125 206.0625 C 132.528 206.06253 127.8892 204.36845 124.1875 200.96875 C 120.48565 197.56914 117.48541 192.76067 115.1875 186.5625 C 112.88947 180.36444 111.25092 172.97492 110.25 164.375 C 109.24897 155.77523 108.74994 146.27548 108.75 135.875 C 108.74994 125.47472 109.24897 116.03052 110.25 107.53125 C 111.25092 99.03225 112.88947 91.67007 115.1875 85.46875 C 117.48541 79.26774 120.48565 74.46233 124.1875 71.0625 C 127.8892 67.66302 132.528 65.96893 138.125 65.96875 z M 355.125 110.0625 C 353.16156 110.06276 351.20086 111.14884 349.8125 113 C 348.42413 114.85115 347.62519 117.44458 347.625 120.0625 L 347.625 306.0625 L 320.34375 278.78125 C 318.51036 276.94915 315.90412 275.89905 313.3125 275.9375 C 310.81985 275.9765 308.35712 277.01905 306.59375 278.78125 L 279.09375 306.28125 C 277.29345 308.08088 276.25 310.61072 276.25 313.15625 C 276.25 315.70177 277.29345 318.23161 279.09375 320.03125 L 370.75 411.65625 C 372.54965 413.45653 375.07948 414.5 377.625 414.5 C 380.17053 414.5 382.70037 413.45653 384.5 411.65625 L 476.125 320.03125 C 477.92528 318.23162 479 315.70178 479 313.15625 C 479 310.61073 477.92528 308.08089 476.125 306.28125 L 448.625 278.78125 C 446.82593 276.9856 444.32311 275.9375 441.78125 275.9375 C 439.23941 275.9375 436.70533 276.9856 434.90625 278.78125 L 407.625 306.0625 L 407.625 120.0625 C 407.6248 117.44458 406.82587 114.85115 405.4375 113 C 404.04913 111.14884 402.08844 110.06276 400.125 110.0625 L 355.125 110.0625 z M 134.6875 269.1875 C 122.08368 269.18772 111.33637 271.43942 102.4375 275.9375 C 93.538536 280.43599 86.176361 286.13143 80.375 293.03125 C 74.573589 299.93146 70.322739 307.56744 67.625 315.96875 C 64.927236 324.3704 63.593742 332.59219 63.59375 340.59375 C 63.593742 350.18861 64.982778 358.96717 67.78125 366.96875 C 70.579696 374.97057 74.944682 381.83067 80.84375 387.53125 C 86.742766 393.23203 94.267661 397.6213 103.46875 400.71875 C 112.66974 403.81636 123.78069 405.37508 136.78125 405.375 C 140.38224 405.37508 144.74418 404.93159 149.84375 404.03125 C 154.94314 403.13106 159.58193 401.68343 163.78125 399.6875 C 160.97962 408.48884 157.11671 415.79549 152.21875 421.59375 C 147.32058 427.39215 141.37565 432.03095 134.375 435.53125 C 127.3742 439.03165 119.29473 441.52985 110.09375 443.03125 C 100.89266 444.53275 90.588831 445.3672 79.1875 445.5625 C 79.590307 451.9651 79.975195 458.1878 80.375 464.1875 C 80.774755 470.1873 81.079808 476.37865 81.28125 482.78125 C 104.07783 482.57985 123.77336 479.83225 140.375 474.53125 C 156.97647 469.23035 170.64418 461.48025 181.34375 451.28125 C 192.04309 441.08235 199.93162 428.46817 205.03125 413.46875 C 210.13057 398.46944 212.68734 381.1671 212.6875 361.5625 C 212.68734 331.76529 206.12925 308.93108 193.03125 293.03125 C 179.93298 277.1318 160.48695 269.18772 134.6875 269.1875 z M 135.875 306.375 C 141.87466 306.37518 146.93264 307.73687 151.03125 310.4375 C 155.12966 313.13847 158.37941 316.83171 160.78125 321.53125 C 163.18288 326.23111 164.87696 331.73257 165.875 338.03125 C 166.87281 344.33022 167.48597 351.07923 167.6875 358.28125 C 167.68739 358.87951 167.63184 359.57556 167.53125 360.375 C 167.43039 361.17468 167.37488 361.98181 167.375 362.78125 L 167.375 365.46875 C 164.9762 367.06799 161.27993 368.3186 156.28125 369.21875 C 151.28239 370.11914 146.47696 370.56261 141.875 370.5625 C 129.87541 370.56261 121.23833 367.98156 115.9375 362.78125 C 110.63654 357.58118 107.9687 349.5785 107.96875 338.78125 C 107.9687 335.18033 108.52326 331.48709 109.625 327.6875 C 110.72663 323.88822 112.39338 320.38896 114.59375 317.1875 C 116.79401 313.98638 119.68316 311.37407 123.28125 309.375 C 126.8792 307.37628 131.07145 306.37518 135.875 306.375 z " id="rect4510" style="font-size:medium;font-style:normal;font-variant:normal;font-weight:normal;font-stretch:normal;text-indent:0;text-align:start;text-decoration:none;line-height:normal;letter-spacing:normal;word-spacing:normal;text-transform:none;direction:ltr;block-progression:tb;writing-mode:lr-tb;text-anchor:start;baseline-shift:baseline;color:#000000;fill:#222222;fill-opacity:1;fill-rule:nonzero;stroke:none;stroke-width:20;marker:none;visibility:visible;display:inline;overflow:visible;enable-background:accumulate;font-family:Sans;-inkscape-font-specification:Sans" transform="translate(-28,580.36219)"/></g></g></g></svg>