<?xml version="1.0" ?><svg height="512" id="svg2" version="1.1" width="512" xmlns="http://www.w3.org/2000/svg" xmlns:cc="http://creativecommons.org/ns#" xmlns:dc="http://purl.org/dc/elements/1.1/" xmlns:inkscape="http://www.inkscape.org/namespaces/inkscape" xmlns:rdf="http://www.w3.org/1999/02/22-rdf-syntax-ns#" xmlns:sodipodi="http://sodipodi.sourceforge.net/DTD/sodipodi-0.dtd" xmlns:svg="http://www.w3.org/2000/svg"><defs id="defs4"/><g id="layer1" transform="translate(0,-540.36218)"><g id="g4305"><g id="g4345" transform="translate(28,-40.00001)"><path d="M 134.6875 27.5625 C 122.08368 27.56272 111.33637 29.81442 102.4375 34.3125 C 93.538536 38.81099 86.176361 44.50643 80.375 51.40625 C 74.573589 58.30646 70.322739 65.97369 67.625 74.375 C 64.927236 82.77665 63.593742 90.96719 63.59375 98.96875 C 63.593742 108.56361 64.982778 117.37342 67.78125 125.375 C 70.579696 133.37682 74.944682 140.20567 80.84375 145.90625 C 86.742766 151.60703 94.267661 156.02755 103.46875 159.125 C 112.66974 162.22261 123.7807 163.75008 136.78125 163.75 C 140.38224 163.75008 144.74418 163.30659 149.84375 162.40625 C 154.94314 161.50606 159.58193 160.05843 163.78125 158.0625 C 160.97963 166.86384 157.11672 174.17047 152.21875 179.96875 C 147.32058 185.76714 141.37565 190.40594 134.375 193.90625 C 127.3742 197.40666 119.29473 199.90483 110.09375 201.40625 C 100.89265 202.90775 90.588831 203.77347 79.1875 203.96875 C 79.590307 210.37137 79.975195 216.56277 80.375 222.5625 C 80.774755 228.56227 81.079808 234.75367 81.28125 241.15625 C 104.07783 240.95483 123.77337 238.20716 140.375 232.90625 C 156.97647 227.60536 170.64417 219.85525 181.34375 209.65625 C 192.04308 199.45732 199.93162 186.87444 205.03125 171.875 C 210.13058 156.87569 212.68734 139.57335 212.6875 119.96875 C 212.68734 90.17154 206.12925 67.30608 193.03125 51.40625 C 179.93298 35.5068 160.48696 27.56272 134.6875 27.5625 z M 135.875 64.75 C 141.87466 64.75018 146.93264 66.11187 151.03125 68.8125 C 155.12966 71.51347 158.37941 75.20671 160.78125 79.90625 C 163.18288 84.60611 164.87696 90.10757 165.875 96.40625 C 166.87281 102.70522 167.48597 109.45423 167.6875 116.65625 C 167.68739 117.25451 167.6318 117.95056 167.53125 118.75 C 167.43039 119.54968 167.37488 120.35681 167.375 121.15625 L 167.375 123.84375 C 164.9762 125.44299 161.27993 126.6936 156.28125 127.59375 C 151.28238 128.49414 146.47696 128.96886 141.875 128.96875 C 129.87541 128.96886 121.23833 126.35656 115.9375 121.15625 C 110.63654 115.95618 107.9687 107.9535 107.96875 97.15625 C 107.9687 93.55533 108.52326 89.86209 109.625 86.0625 C 110.72663 82.26322 112.39338 78.76396 114.59375 75.5625 C 116.79401 72.36138 119.68316 69.74907 123.28125 67.75 C 126.8792 65.75128 131.07145 64.75018 135.875 64.75 z M 355.125 110.0625 C 353.16156 110.06276 351.20086 111.14884 349.8125 113 C 348.42413 114.85115 347.62519 117.44458 347.625 120.0625 L 347.625 306.0625 L 320.34375 278.78125 C 318.51036 276.94915 315.90412 275.89905 313.3125 275.9375 C 310.81985 275.9765 308.35712 277.01905 306.59375 278.78125 L 279.09375 306.28125 C 277.29345 308.08088 276.25 310.61072 276.25 313.15625 C 276.25 315.70177 277.29345 318.23161 279.09375 320.03125 L 370.75 411.65625 C 372.54965 413.45653 375.07948 414.5 377.625 414.5 C 380.17053 414.5 382.70037 413.45653 384.5 411.65625 L 476.125 320.03125 C 477.92528 318.23162 479 315.70178 479 313.15625 C 479 310.61073 477.92528 308.08089 476.125 306.28125 L 448.625 278.78125 C 446.82593 276.9856 444.32311 275.9375 441.78125 275.9375 C 439.23941 275.9375 436.70533 276.9856 434.90625 278.78125 L 407.625 306.0625 L 407.625 120.0625 C 407.6248 117.44458 406.82587 114.85115 405.4375 113 C 404.04913 111.14884 402.08844 110.06276 400.125 110.0625 L 355.125 110.0625 z M 138.125 265.875 C 126.72356 265.87522 116.41668 268.26229 107.21875 273.0625 C 98.020707 277.86311 90.132165 284.8929 83.53125 294.09375 C 76.930274 303.29498 71.875347 314.56865 68.375 327.96875 C 64.874622 341.36916 63.124989 356.7865 63.125 374.1875 C 63.124989 409.18513 69.794173 436.01762 83.09375 454.71875 C 96.393268 473.41993 114.72406 482.78125 138.125 482.78125 C 161.52577 482.78125 179.88782 473.41993 193.1875 454.71875 C 206.48691 436.01762 213.12484 409.18513 213.125 374.1875 C 213.12484 339.38539 206.48691 312.63884 193.1875 293.9375 C 179.88782 275.23653 161.52577 265.87522 138.125 265.875 z M 138.125 304.28125 C 143.72794 304.28143 148.45047 305.97552 152.25 309.375 C 156.04934 312.77483 159.04957 317.58024 161.25 323.78125 C 163.4502 329.98257 165.03321 337.34475 166.03125 345.84375 C 167.02906 354.34302 167.53113 363.78722 167.53125 374.1875 C 167.53113 384.58798 167.02906 394.08773 166.03125 402.6875 C 165.03321 411.28742 163.4502 418.67694 161.25 424.875 C 159.04957 431.07317 156.04934 435.88164 152.25 439.28125 C 148.45047 442.68095 143.72794 444.37503 138.125 444.375 C 132.528 444.37503 127.8892 442.68095 124.1875 439.28125 C 120.48565 435.88164 117.48541 431.07317 115.1875 424.875 C 112.88947 418.67694 111.25092 411.28742 110.25 402.6875 C 109.24897 394.08773 108.74994 384.58798 108.75 374.1875 C 108.74994 363.78722 109.24897 354.34302 110.25 345.84375 C 111.25092 337.34475 112.88947 329.98257 115.1875 323.78125 C 117.48541 317.58024 120.48565 312.77483 124.1875 309.375 C 127.8892 305.97552 132.528 304.28143 138.125 304.28125 z " id="rect4510" style="font-size:medium;font-style:normal;font-variant:normal;font-weight:normal;font-stretch:normal;text-indent:0;text-align:start;text-decoration:none;line-height:normal;letter-spacing:normal;word-spacing:normal;text-transform:none;direction:ltr;block-progression:tb;writing-mode:lr-tb;text-anchor:start;baseline-shift:baseline;color:#000000;fill:#222222;fill-opacity:1;fill-rule:nonzero;stroke:none;stroke-width:20;marker:none;visibility:visible;display:inline;overflow:visible;enable-background:accumulate;font-family:Sans;-inkscape-font-specification:Sans;stroke-opacity:1" transform="translate(-28,580.36219)"/><g id="flowRoot4459-8" style="font-size:50px;font-style:normal;font-variant:normal;font-weight:normal;font-stretch:normal;text-align:start;line-height:125%;letter-spacing:0px;word-spacing:0px;writing-mode:lr-tb;text-anchor:start;fill:#000000;fill-opacity:1;stroke:none;font-family:verdana;-inkscape-font-specification:verdana" transform="translate(-15.066204,701.19518)"/></g></g></g></svg>